<svg width="32" height="32" viewBox="0 0 32 32" fill="none" xmlns="http://www.w3.org/2000/svg">
<path d="M30.6589 10.8895C30.6589 13.4239 29.6521 15.8545 27.86 17.6466C26.0679 19.4387 23.6373 20.4455 21.1029 20.4455C20.8807 20.4455 20.6598 20.4322 20.4402 20.4055C18.1444 20.253 15.9819 19.2731 14.3536 17.6475C12.7253 16.0219 11.7418 13.861 11.5855 11.5655C11.5612 11.341 11.5483 11.1153 11.5469 10.8895C11.5469 8.35509 12.5537 5.92448 14.3458 4.13238C16.1379 2.34029 18.5685 1.3335 21.1029 1.3335C23.6373 1.3335 26.0679 2.34029 27.86 4.13238C29.6521 5.92448 30.6589 8.35509 30.6589 10.8895Z" fill="#FFEF5E"/>
<path d="M21.1029 1.3335C18.5685 1.3335 16.1379 2.34029 14.3458 4.13239C12.5537 5.92449 11.5469 8.35509 11.5469 10.8895C11.5469 11.1153 11.5598 11.3402 11.5855 11.5642C11.739 13.8345 12.7029 15.9742 14.3015 17.5935L27.8082 4.08817C26.0232 2.32095 23.6121 1.33081 21.1002 1.3335" fill="#FFFAD6"/>
<path d="M20.4428 20.407C20.5846 22.3519 20.1285 24.2937 19.1356 25.972C18.1426 27.6503 16.6603 28.9849 14.8874 29.7969C13.1144 30.6089 11.1356 30.8595 9.21621 30.515C7.29683 30.1705 5.52865 29.2475 4.14872 27.8696C2.76879 26.4918 1.84308 24.725 1.49572 22.8061C1.14835 20.8873 1.39593 18.9081 2.20526 17.1339C3.01459 15.3597 4.34698 13.8754 6.0238 12.8799C7.70061 11.8845 9.64168 11.4254 11.5868 11.5643C11.7424 13.8601 12.7254 16.0215 14.3535 17.6476C15.9816 19.2737 18.1441 20.2541 20.4401 20.407" fill="#FAC039"/>
<path d="M11.5867 11.5639C9.65065 11.4268 7.71873 11.8824 6.04798 12.8701C4.37722 13.8579 3.04686 15.331 2.2339 17.0934C1.42093 18.8559 1.16391 20.8241 1.49703 22.7362C1.83016 24.6483 2.73763 26.4136 4.0987 27.7973L14.304 17.5933C12.7049 15.9742 11.7405 13.8345 11.5867 11.5639Z" fill="#FFDDA1"/>
<path d="M30.6589 10.8895C30.6589 13.4239 29.6521 15.8545 27.86 17.6466C26.0679 19.4387 23.6373 20.4455 21.1029 20.4455C20.8807 20.4455 20.6598 20.4322 20.4402 20.4055C18.1444 20.253 15.9819 19.2731 14.3536 17.6475C12.7253 16.0219 11.7418 13.861 11.5855 11.5655C11.5612 11.341 11.5483 11.1153 11.5469 10.8895C11.5469 8.35509 12.5537 5.92448 14.3458 4.13238C16.1379 2.34029 18.5685 1.3335 21.1029 1.3335C23.6373 1.3335 26.0679 2.34029 27.86 4.13238C29.6521 5.92448 30.6589 8.35509 30.6589 10.8895Z" stroke="#191919" stroke-linecap="round" stroke-linejoin="round"/>
<path d="M20.4428 20.407C20.5846 22.3519 20.1285 24.2937 19.1356 25.972C18.1426 27.6503 16.6603 28.9849 14.8874 29.7969C13.1144 30.6089 11.1356 30.8595 9.21621 30.515C7.29683 30.1705 5.52864 29.2475 4.14872 27.8696C2.76879 26.4918 1.84308 24.725 1.49572 22.8061C1.14835 20.8873 1.39593 18.9081 2.20526 17.1339C3.01459 15.3597 4.34698 13.8754 6.0238 12.8799C7.70061 11.8845 9.64168 11.4254 11.5868 11.5643C11.7424 13.8601 12.7254 16.0215 14.3535 17.6476C15.9816 19.2737 18.1441 20.2541 20.4401 20.407M10.2801 17.8977V16.623" stroke="#191919" stroke-linecap="round" stroke-linejoin="round"/>
<path d="M12.1814 17.8961H9.60011C9.20294 17.8961 8.81815 18.0344 8.51185 18.2872C8.20554 18.54 7.99684 18.8916 7.92159 19.2816C7.84634 19.6716 7.90924 20.0756 8.09948 20.4242C8.28973 20.7729 8.59544 21.0444 8.96411 21.1921L11.5934 22.2455C11.9622 22.3932 12.268 22.6649 12.4582 23.0136C12.6485 23.3624 12.7113 23.7666 12.6358 24.1566C12.5604 24.5467 12.3515 24.8983 12.0449 25.151C11.7384 25.4038 11.3534 25.5418 10.9561 25.5415H8.36011M10.2801 26.8161V25.5415M21.1108 7.06679V5.79346M23.0134 7.06679H20.4308C20.0336 7.06676 19.6488 7.20503 19.3425 7.45786C19.0362 7.71069 18.8275 8.06229 18.7523 8.45226C18.677 8.84224 18.7399 9.24625 18.9301 9.59489C19.1204 9.94354 19.4261 10.215 19.7948 10.3628L22.4241 11.4161C22.7929 11.5639 23.0987 11.8355 23.2889 12.1843C23.4791 12.5331 23.5419 12.9372 23.4665 13.3273C23.3911 13.7174 23.1821 14.069 22.8756 14.3217C22.5691 14.5744 22.1841 14.7125 21.7868 14.7121H19.1908M21.1108 15.9868V14.7121" stroke="#191919" stroke-linecap="round" stroke-linejoin="round"/>
</svg>
