<svg width="212" height="34" viewBox="0 0 212 34" fill="none" xmlns="http://www.w3.org/2000/svg">
<g clip-path="url(#clip0_83_1369)">
<path d="M189.132 18.7852C192.657 16.2237 195.158 12.4879 196.187 8.24652H188.848C187.847 10.6751 186.036 12.6804 183.725 13.9204C181.415 15.1605 178.746 15.5587 176.176 15.0471C173.605 14.5354 171.291 13.1457 169.627 11.1147C167.964 9.08378 167.054 6.53728 167.054 3.90927H160.053C160.051 6.81267 160.736 9.67508 162.052 12.2612C163.368 14.8473 165.278 17.0832 167.624 18.7852C165.278 20.4881 163.369 22.7246 162.053 25.3111C160.737 27.8976 160.051 30.7602 160.053 33.6639H167.054C167.054 32.1729 167.347 30.6964 167.916 29.3188C168.485 27.9412 169.319 26.6895 170.371 25.6352C171.422 24.5808 172.67 23.7445 174.044 23.1738C175.418 22.6032 176.891 22.3095 178.378 22.3095C179.865 22.3095 181.337 22.6032 182.711 23.1738C184.085 23.7445 185.333 24.5808 186.385 25.6352C187.437 26.6895 188.271 27.9412 188.84 29.3188C189.409 30.6964 189.702 32.1729 189.702 33.6639H196.703C196.704 30.7602 196.019 27.8976 194.703 25.3111C193.387 22.7246 191.477 20.4881 189.132 18.7852Z" fill="#003D31"/>
<path d="M192.993 0L189.493 6.07789H196.491L192.993 0Z" fill="#003D31"/>
<path d="M204.119 7.62896C204.119 5.40002 205.649 3.90927 208.061 3.90927C210.473 3.90927 212 5.40002 212 7.64333C212 9.88663 210.47 11.3774 208.061 11.3774C205.652 11.3774 204.119 9.85791 204.119 7.62896ZM211.043 7.62896C211.043 5.68438 210.141 4.77098 208.061 4.77098C205.981 4.77098 205.068 5.68438 205.068 7.64333C205.068 9.60227 205.981 10.5157 208.061 10.5157C210.141 10.5157 211.043 9.57067 211.043 7.62896ZM205.936 7.62896C205.936 6.42545 206.795 5.61832 208.093 5.61832C209.281 5.61832 210.129 6.29332 210.129 7.21822V7.30726H209.238V7.2412C209.238 6.66673 208.797 6.43694 208.093 6.43694C207.279 6.43694 206.829 6.75577 206.829 7.61747C206.829 8.47918 207.279 8.79801 208.093 8.79801C208.797 8.79801 209.238 8.55386 209.238 7.99088V7.92482H210.129V8.01386C210.129 8.94163 209.27 9.61376 208.093 9.61376C206.783 9.62525 205.936 8.82099 205.936 7.62896Z" fill="#003D31"/>
<path d="M0 33.5605V4.02129H6.46548L14.9505 21.1261L17.6347 27.2557H17.9842L20.5795 21.1261L28.9786 4.02129H35.4441V33.5605H30.6945V15.4389L30.8693 11.1619H30.5169L28.7151 15.4389L20.5795 31.8113H14.8503L6.72902 15.4389L4.9243 11.1619H4.58341L4.76102 15.4389V33.5605H0Z" fill="#003D31"/>
<path d="M38.873 28.2697C38.873 24.8745 41.6002 23.0994 45.9086 22.6255L55.8603 21.5685V20.2874C55.8603 16.674 54.279 15.4044 50.0995 15.4044C46.0547 15.4044 44.0838 16.7286 44.0838 19.9485V20.1064H39.3572V19.9312C39.3572 14.9477 43.4908 11.1993 50.4376 11.1993C57.3843 11.1993 60.5096 14.9908 60.5096 20.2386V33.5548H56.1468V28.0973H55.8603C54.7145 31.8026 51.2454 34.0057 46.2753 34.0057C41.7319 34 38.873 31.8831 38.873 28.2697ZM47.5357 30.5675C52.5058 30.5675 55.8431 28.7149 55.8431 24.3949L47.2664 25.36C44.8028 25.6673 43.6169 26.2418 43.6169 27.9451C43.6226 29.7231 44.8086 30.5618 47.5357 30.5618V30.5675Z" fill="#003D31"/>
<path d="M64.7407 33.5605V11.6474H69.095V17.5558H69.4043C70.0518 14.0286 72.4265 11.2022 76.9125 11.2022C81.8798 11.2022 84.034 14.7754 84.034 18.9173V21.7896H79.3303V19.8479C79.3303 16.7171 78.0097 15.2522 74.7469 15.2522C71.0229 15.2522 69.4702 17.326 69.4702 21.2496V33.5519L64.7407 33.5605Z" fill="#003D31"/>
<path d="M87.0247 33.5605V4.02129H91.7742V20.3362H98.0191L104.559 11.6474H110.099L101.878 22.1832L110.056 33.5605H104.47L98.0191 24.6103H91.7742V33.5605H87.0247Z" fill="#003D31"/>
<path d="M111.563 22.6255C111.563 15.7979 116.224 11.2022 123.348 11.2022C130.12 11.2022 134.738 14.9506 134.738 21.6087C134.75 22.3033 134.691 22.9973 134.56 23.6797H116.018C116.195 27.9135 118.261 30.1625 123.317 30.1625C127.9 30.1625 129.782 28.6632 129.782 26.0608V25.7104H134.532V26.1097C134.532 30.783 129.948 34 123.451 34C116.267 34 111.563 29.9442 111.563 22.6255ZM116.049 21.0371H130.252V20.9509C130.252 16.8923 127.92 14.9535 123.259 14.9535C118.424 14.9535 116.304 17.1135 116.049 21.0371Z" fill="#003D31"/>
<path d="M147.623 33.5605C142.917 33.5605 140.015 31.4867 140.015 26.1527V15.6141H136.322V11.6474H140.015V6.83907H144.718V11.6474H152.636V15.6141H144.718V25.8885C144.718 28.577 145.95 29.2836 148.677 29.2836H152.636V33.5605H147.623Z" fill="#003D31"/>
</g>
<defs>
<clipPath id="clip0_83_1369">
<rect width="212" height="34" fill="white"/>
</clipPath>
</defs>
</svg>
