<svg enable-background="new 0 0 512 512" height="512" viewBox="0 0 512 512" width="512" xmlns="http://www.w3.org/2000/svg"><g id="&#x5F62;&#x72B6;_2_3_" enable-background="new"><g id="&#x5F62;&#x72B6;_2"><g><path clip-rule="evenodd" d="m196.558 146.096c36.239 0 57.737 28.194 57.737 28.194l-29.45 24.831c-13.245-22.071-17.673-31.801-39.698-34.462v62.727c4.994 1.676 10.535 2.675 16.725 2.675 42.982 0 83.071-55.681 83.071-55.681s-37.117-50.39-93.693-48.612c-2.067.065-4.096.172-6.104.315v20.686c3.701-.396 7.469-.673 11.412-.673zm-105.176 30.929s31.289-46.17 93.765-50.942v-16.748c-69.198 5.553-129.123 64.159-129.123 64.159s33.937 98.12 129.123 107.103v-17.805c-69.848-8.788-93.765-85.767-93.765-85.767zm93.765-98.588v30.898c2.03-.161 4.063-.289 6.104-.364 78.675-2.65 129.934 64.523 129.934 64.523s-58.877 71.593-120.211 71.593c-5.62 0-10.882-.52-15.827-1.395v19.1c4.228.537 8.608.854 13.18.854 57.08 0 98.359-29.147 138.329-63.648 6.622 5.307 33.755 18.215 39.336 23.873-38.01 31.814-126.576 57.457-176.787 57.457-4.838 0-9.493-.292-14.058-.73v26.841h216.946v-229.002zm-39.434 104.203s17.262-20.642 39.352-17.989c.028 0 .049.009.083.009v-17.891c-42.099 4.551-67.444 32.634-67.444 32.634s14.652 54.878 67.444 64.29v-16.307c-29.764-10-39.435-44.746-39.435-44.746z" fill="#90c31f" fill-rule="evenodd"/></g></g></g><g id="&#x5F62;&#x72B6;_2_2_" enable-background="new"><g id="&#x5F62;&#x72B6;_2_1_"><g><path clip-rule="evenodd" d="m217.306 434.563h24.317v-86.103h-24.326zm-55.366-17.86-19.447-68.237-26.25-.003 27.773 86.101h35.049l27.991-86.101h-24.82zm-92.273-68.362h-43.667v86.223h24.534v-65.47l19.006.007c6.296 0 10.78 1.567 13.814 4.804 3.846 4.1 5.416 10.707 5.416 22.799v37.86h23.771v-47.637c0-34.001-21.672-38.586-42.874-38.586zm382.118.144-32.484.008-33.955 86.041h23.977l5.374-15.208h40.185l5.086 15.208h26.032zm-31.894 56.014 15.196-40.309 14.73 40.309zm-68.759 30.064h24.321v-86.098l-24.327-.003zm-60.552-86.1h-34.128v86.101h39.442c21.016 0 27.874-3.496 35.29-11.331 5.244-5.501 8.633-17.577 8.633-30.773 0-12.103-2.869-22.9-7.871-29.623-9.01-12.025-21.988-14.374-41.366-14.374zm.448 67.723h-10.456v-48.976h10.456c15.169 0 24.979 6.813 24.979 24.485 0 17.678-9.81 24.491-24.979 24.491z" fill="#1b1b1b" fill-rule="evenodd"/></g></g></g></svg>