<svg width="33" height="32" viewBox="0 0 33 32" fill="none" xmlns="http://www.w3.org/2000/svg">
<path d="M30.5549 3.22524L24.4999 3.50024C24.4037 3.50532 24.3111 3.53806 24.2331 3.59454C24.1551 3.65101 24.095 3.72881 24.0602 3.81858C24.0253 3.90835 24.0171 4.00628 24.0366 4.1006C24.0561 4.19491 24.1024 4.2816 24.1699 4.35024L25.3849 5.56524L12.5699 15.0652L6.8699 8.06524C6.82744 8.01275 6.77478 7.96941 6.71511 7.93782C6.65544 7.90624 6.59 7.88706 6.52272 7.88146C6.45544 7.87585 6.38772 7.88393 6.32364 7.9052C6.25957 7.92647 6.20047 7.9605 6.1499 8.00524L2.1949 11.5052C2.14157 11.5521 2.09882 11.6098 2.06951 11.6744C2.0402 11.7391 2.02499 11.8092 2.0249 11.8802V15.8802C2.02502 15.9763 2.05283 16.0703 2.10499 16.151C2.15716 16.2317 2.23147 16.2957 2.31904 16.3353C2.4066 16.3748 2.50371 16.3883 2.59875 16.3741C2.69378 16.3599 2.78271 16.3187 2.8549 16.2552L6.4249 13.1002L12.0699 20.0852C12.1521 20.1854 12.27 20.2497 12.3987 20.2646C12.5275 20.2795 12.6569 20.2439 12.7599 20.1652L28.2999 8.50024L29.9399 10.1402C30.0083 10.2094 30.0954 10.2571 30.1905 10.2775C30.2857 10.2979 30.3847 10.2901 30.4754 10.2551C30.5662 10.22 30.6447 10.1593 30.7015 10.0803C30.7582 10.0013 30.7907 9.90743 30.7949 9.81024L31.0799 3.73024C31.0807 3.662 31.0675 3.59433 31.0411 3.53138C31.0147 3.46844 30.9757 3.41157 30.9266 3.36426C30.8774 3.31695 30.819 3.28021 30.7551 3.2563C30.6912 3.23239 30.6231 3.22182 30.5549 3.22524Z" fill="#47B881"/>
<path d="M6.5 18H3C2.72386 18 2.5 18.2239 2.5 18.5V27.5C2.5 27.7761 2.72386 28 3 28H6.5C6.77614 28 7 27.7761 7 27.5V18.5C7 18.2239 6.77614 18 6.5 18Z" fill="#F5EC5B"/>
<path d="M14.5 22H11C10.7239 22 10.5 22.2239 10.5 22.5V27.5C10.5 27.7761 10.7239 28 11 28H14.5C14.7761 28 15 27.7761 15 27.5V22.5C15 22.2239 14.7761 22 14.5 22Z" fill="#D6CE57"/>
<path d="M22.5 18H19C18.7239 18 18.5 18.2239 18.5 18.5V27.5C18.5 27.7761 18.7239 28 19 28H22.5C22.7761 28 23 27.7761 23 27.5V18.5C23 18.2239 22.7761 18 22.5 18Z" fill="#F5EC5B"/>
<path d="M30 12.5H26.5C26.2239 12.5 26 12.7239 26 13V27.5C26 27.7761 26.2239 28 26.5 28H30C30.2761 28 30.5 27.7761 30.5 27.5V13C30.5 12.7239 30.2761 12.5 30 12.5Z" fill="#FAC039"/>
</svg>
