<svg width="36" height="36" viewBox="0 0 36 36" fill="none" xmlns="http://www.w3.org/2000/svg">
<circle cx="18" cy="18" r="18" fill="#D9D9D9"/>
<path d="M17.612 23H15.694L14.91 20.508H11.438L10.668 23H8.79205L12.068 13.228H14.364L17.612 23ZM14.462 18.926L13.202 14.908H13.132L11.886 18.926H14.462ZM22.5192 23.168C19.9572 23.168 18.2632 21.418 18.2632 18.114C18.2632 14.81 19.9572 13.06 22.5192 13.06C25.0952 13.06 26.7752 14.81 26.7752 18.114C26.7752 21.418 25.0952 23.168 22.5192 23.168ZM22.5192 21.53C23.9192 21.53 24.8152 20.536 24.8152 18.87V17.358C24.8152 15.692 23.9192 14.698 22.5192 14.698C21.1192 14.698 20.2232 15.692 20.2232 17.358V18.87C20.2232 20.536 21.1192 21.53 22.5192 21.53Z" fill="#666666"/>
</svg>
