<svg width="327" height="31" viewBox="0 0 327 31" fill="none" xmlns="http://www.w3.org/2000/svg">
<rect y="0.760254" width="327" height="30" rx="15" fill="#F0F0F0"/>
<path d="M23.1884 21.5143C22.3184 21.5143 21.6404 21.3163 21.1544 20.9203C20.6684 20.5243 20.4254 19.9723 20.4254 19.2643C20.4254 18.9883 20.4614 18.6973 20.5334 18.3913C20.6114 18.0793 20.7164 17.7703 20.8484 17.4643L21.4064 17.6353C21.2924 17.8693 21.1994 18.1153 21.1274 18.3733C21.0554 18.6253 21.0194 18.8653 21.0194 19.0933C21.0194 19.6033 21.1844 19.9993 21.5144 20.2813C21.8504 20.5633 22.3184 20.7043 22.9184 20.7043H23.4584C24.1784 20.7043 24.7364 20.5903 25.1324 20.3623C25.5344 20.1403 25.7354 19.8283 25.7354 19.4263V19.3183L24.3764 19.0123C24.1304 18.9583 23.9234 18.8953 23.7554 18.8233C23.5874 18.7513 23.4494 18.6673 23.3414 18.5713C23.2394 18.4693 23.1644 18.3553 23.1164 18.2293C23.0744 18.0973 23.0534 17.9443 23.0534 17.7703C23.0534 17.4883 23.1074 17.2153 23.2154 16.9513C23.3294 16.6873 23.4764 16.4563 23.6564 16.2583C23.8424 16.0543 24.0554 15.8923 24.2954 15.7723C24.5354 15.6463 24.7844 15.5833 25.0424 15.5833C25.7864 15.5833 26.3234 15.9733 26.6534 16.7533L26.9594 17.4733C27.0074 17.5753 27.0494 17.6623 27.0854 17.7343C27.1274 17.8003 27.1724 17.8513 27.2204 17.8873L27.6794 17.1133C27.9074 16.7173 28.1384 16.3903 28.3724 16.1323C28.6064 15.8683 28.8434 15.6583 29.0834 15.5023C29.3234 15.3463 29.5664 15.2353 29.8124 15.1693C30.0644 15.1033 30.3254 15.0703 30.5954 15.0703C31.1774 15.0703 31.6304 15.2323 31.9544 15.5563C32.2784 15.8743 32.4404 16.3153 32.4404 16.8793C32.4404 17.2993 32.3714 17.6473 32.2334 17.9233C32.3594 17.9653 32.5214 17.9863 32.7194 17.9863H32.8994V18.5803L32.7194 18.7603C32.4914 18.7603 32.2994 18.7423 32.1434 18.7063C31.9934 18.6643 31.8554 18.5863 31.7294 18.4723C31.4174 18.6643 30.9794 18.7603 30.4154 18.7603H27.5714C27.2654 18.7603 27.0164 18.6853 26.8244 18.5353C26.6324 18.3793 26.4524 18.1093 26.2844 17.7253L25.9874 17.0503C25.8854 16.8103 25.7504 16.6363 25.5824 16.5283C25.4144 16.4143 25.2044 16.3573 24.9524 16.3573C24.7844 16.3573 24.6224 16.3903 24.4664 16.4563C24.3104 16.5223 24.1724 16.6123 24.0524 16.7263C23.9324 16.8403 23.8364 16.9693 23.7644 17.1133C23.6924 17.2573 23.6564 17.4073 23.6564 17.5633C23.6564 17.6533 23.6654 17.7343 23.6834 17.8063C23.7074 17.8723 23.7464 17.9323 23.8004 17.9863C23.8604 18.0343 23.9384 18.0793 24.0344 18.1213C24.1304 18.1573 24.2534 18.1933 24.4034 18.2293L25.5464 18.5083C25.8164 18.5743 26.0144 18.6793 26.1404 18.8233C26.2664 18.9733 26.3294 19.1743 26.3294 19.4263C26.3294 19.7563 26.2574 20.0503 26.1134 20.3083C25.9754 20.5663 25.7714 20.7853 25.5014 20.9653C25.2314 21.1453 24.9014 21.2803 24.5114 21.3703C24.1214 21.4663 23.6804 21.5143 23.1884 21.5143ZM27.7964 17.9413L27.8234 17.9863H30.4154C30.8654 17.9863 31.2104 17.9113 31.4504 17.7613C31.6904 17.6113 31.8104 17.3473 31.8104 16.9693C31.8104 16.5973 31.7144 16.3183 31.5224 16.1323C31.3364 15.9403 31.0724 15.8443 30.7304 15.8443H30.4604C30.2204 15.8443 30.0014 15.8683 29.8034 15.9163C29.6114 15.9583 29.4254 16.0363 29.2454 16.1503C29.0714 16.2583 28.8974 16.4113 28.7234 16.6093C28.5554 16.8013 28.3754 17.0443 28.1834 17.3383L27.7964 17.9413ZM32.7175 18.1663L32.8975 17.9863H34.5985C34.8445 17.9863 35.0515 17.9653 35.2195 17.9233C35.3875 17.8813 35.5225 17.8123 35.6245 17.7163C35.7325 17.6203 35.8075 17.4973 35.8495 17.3473C35.8975 17.1913 35.9215 17.0023 35.9215 16.7803V16.4923H35.8765C35.7925 16.6903 35.6515 16.8463 35.4535 16.9603C35.2615 17.0743 35.0335 17.1313 34.7695 17.1313C34.2895 17.1313 33.9175 17.0083 33.6535 16.7623C33.3895 16.5163 33.2575 16.1683 33.2575 15.7183C33.2575 15.4543 33.2965 15.2053 33.3745 14.9713C33.4585 14.7373 33.5725 14.5333 33.7165 14.3593C33.8605 14.1853 34.0315 14.0473 34.2295 13.9453C34.4335 13.8433 34.6555 13.7923 34.8955 13.7923C35.4115 13.7923 35.8165 14.0143 36.1105 14.4583C36.4045 14.9023 36.5515 15.5263 36.5515 16.3303C36.5515 16.7803 36.5185 17.1613 36.4525 17.4733C36.3865 17.7853 36.2755 18.0373 36.1195 18.2293C35.9695 18.4153 35.7685 18.5503 35.5165 18.6343C35.2705 18.7183 34.9645 18.7603 34.5985 18.7603H32.7175V18.1663ZM34.9495 16.3393C35.2075 16.3393 35.4115 16.3183 35.5615 16.2763C35.7175 16.2283 35.8375 16.1563 35.9215 16.0603C35.9095 15.6043 35.8075 15.2413 35.6155 14.9713C35.4235 14.7013 35.1655 14.5663 34.8415 14.5663C34.5355 14.5663 34.2985 14.6653 34.1305 14.8633C33.9685 15.0553 33.8875 15.3103 33.8875 15.6283C33.8875 15.8803 33.9565 16.0633 34.0945 16.1773C34.2385 16.2853 34.4635 16.3393 34.7695 16.3393H34.9495ZM35.3995 12.7123C35.2795 12.7123 35.1835 12.6793 35.1115 12.6133C35.0395 12.5413 35.0035 12.4273 35.0035 12.2713C35.0035 12.1153 35.0395 12.0043 35.1115 11.9383C35.1835 11.8663 35.2795 11.8303 35.3995 11.8303H35.4985C35.6185 11.8303 35.7145 11.8663 35.7865 11.9383C35.8585 12.0043 35.8945 12.1153 35.8945 12.2713C35.8945 12.4273 35.8585 12.5413 35.7865 12.6133C35.7145 12.6793 35.6185 12.7123 35.4985 12.7123H35.3995ZM34.2385 12.7123C34.1185 12.7123 34.0225 12.6793 33.9505 12.6133C33.8785 12.5413 33.8425 12.4273 33.8425 12.2713C33.8425 12.1153 33.8785 12.0043 33.9505 11.9383C34.0225 11.8663 34.1185 11.8303 34.2385 11.8303H34.3375C34.4575 11.8303 34.5535 11.8663 34.6255 11.9383C34.6975 12.0043 34.7335 12.1153 34.7335 12.2713C34.7335 12.4273 34.6975 12.5413 34.6255 12.6133C34.5535 12.6793 34.4575 12.7123 34.3375 12.7123H34.2385ZM37.561 18.0223L39.253 16.3753L36.94 13.7473L37.426 13.3243L39.721 15.9253L39.766 15.8803C39.886 15.7663 39.985 15.6583 40.063 15.5563C40.141 15.4543 40.201 15.3493 40.243 15.2413C40.291 15.1273 40.324 15.0073 40.342 14.8813C40.36 14.7493 40.369 14.5963 40.369 14.4223V12.1003H41.035V14.4223C41.035 14.6383 41.023 14.8273 40.999 14.9893C40.975 15.1513 40.933 15.3013 40.873 15.4393C40.813 15.5773 40.729 15.7153 40.621 15.8533C40.519 15.9853 40.387 16.1323 40.225 16.2943L40.135 16.3843L40.684 17.0053C40.882 17.2333 41.02 17.4193 41.098 17.5633C41.176 17.7073 41.215 17.8483 41.215 17.9863C41.215 18.1843 41.143 18.3643 40.999 18.5263C40.861 18.6823 40.648 18.7603 40.36 18.7603H37.561V18.0223ZM39.658 16.8343L38.488 17.9503L38.497 17.9863H40.684L39.658 16.8343ZM37.399 12.3343H37.723L37.732 12.2983C37.684 12.2383 37.645 12.1693 37.615 12.0913C37.585 12.0073 37.57 11.9233 37.57 11.8393C37.57 11.6053 37.648 11.4103 37.804 11.2543C37.96 11.0983 38.158 11.0203 38.398 11.0203C38.536 11.0203 38.677 11.0563 38.821 11.1283C38.965 11.1943 39.073 11.2843 39.145 11.3983L38.812 11.8033C38.692 11.6653 38.554 11.5963 38.398 11.5963C38.29 11.5963 38.2 11.6263 38.128 11.6863C38.056 11.7403 38.02 11.8093 38.02 11.8933C38.02 12.0193 38.077 12.1183 38.191 12.1903C38.305 12.2623 38.464 12.2983 38.668 12.2983H39.244V12.8743H37.399V12.3343ZM42.2912 12.1003H42.9572V18.7603H42.2912V12.1003ZM46.7729 18.7603C46.5569 18.7603 46.3769 18.6973 46.2329 18.5713C46.0949 18.4393 46.0259 18.2473 46.0259 17.9953V17.3023H46.6559V17.9863H47.8709C48.0749 17.9863 48.2429 17.9803 48.3749 17.9683C48.5069 17.9563 48.6119 17.9383 48.6899 17.9143C48.7679 17.8843 48.8219 17.8453 48.8519 17.7973C48.8819 17.7493 48.8969 17.6863 48.8969 17.6083C48.8969 17.5363 48.8819 17.4493 48.8519 17.3473C48.8219 17.2453 48.7679 17.0893 48.6899 16.8793L47.8259 14.5033L48.4649 14.2693L49.3829 16.7893C49.4729 17.0293 49.5509 17.2273 49.6169 17.3833C49.6889 17.5333 49.7609 17.6533 49.8329 17.7433C49.9049 17.8333 49.9769 17.8963 50.0489 17.9323C50.1269 17.9683 50.2139 17.9863 50.3099 17.9863H50.5349V18.5803L50.3549 18.7603C50.1929 18.7603 50.0489 18.7453 49.9229 18.7153C49.8029 18.6853 49.6949 18.6403 49.5989 18.5803C49.5029 18.5143 49.4159 18.4303 49.3379 18.3283C49.2599 18.2263 49.1849 18.1003 49.1129 17.9503H49.0679C49.0319 18.2443 48.9179 18.4543 48.7259 18.5803C48.5339 18.7003 48.2489 18.7603 47.8709 18.7603H46.7729ZM50.3571 18.1663L50.5371 17.9863H50.8431C51.1071 17.9863 51.3501 17.9773 51.5721 17.9593C51.8001 17.9413 52.0311 17.9083 52.2651 17.8603C52.4991 17.8063 52.7451 17.7313 53.0031 17.6353C53.2671 17.5393 53.5641 17.4133 53.8941 17.2573L54.7221 16.8613V16.8253L53.3901 16.5283L51.5271 16.0693V16.8433H50.8971V16.1503C50.8971 15.8983 50.9661 15.7093 51.1041 15.5833C51.2481 15.4513 51.4281 15.3853 51.6441 15.3853C51.7101 15.3853 51.7881 15.3943 51.8781 15.4123C51.9741 15.4243 52.1211 15.4543 52.3191 15.5023L54.5151 16.0693C54.8451 16.1533 55.1211 16.2133 55.3431 16.2493C55.5651 16.2793 55.7571 16.2943 55.9191 16.2943H56.0631V17.0683H55.3791V17.1763C55.3791 17.4763 55.4451 17.6863 55.5771 17.8063C55.7091 17.9263 55.9131 17.9863 56.1891 17.9863H56.5041V18.5803L56.3241 18.7603C56.0601 18.7603 55.8351 18.7363 55.6491 18.6883C55.4631 18.6403 55.3101 18.5623 55.1901 18.4543C55.0761 18.3403 54.9891 18.1963 54.9291 18.0223C54.8751 17.8483 54.8451 17.6353 54.8391 17.3833L54.1371 17.8063C53.7651 18.0283 53.4351 18.2053 53.1471 18.3373C52.8591 18.4633 52.5891 18.5593 52.3371 18.6253C52.0851 18.6853 51.8391 18.7243 51.5991 18.7423C51.3651 18.7543 51.1131 18.7603 50.8431 18.7603H50.3571V18.1663ZM56.3249 18.1663L56.5049 17.9863H56.7659C57.0539 17.9863 57.2609 17.9203 57.3869 17.7883C57.5189 17.6563 57.5849 17.4463 57.5849 17.1583V12.1003H58.2509V17.1583C58.2509 17.7103 58.1309 18.1153 57.8909 18.3733C57.6569 18.6313 57.2819 18.7603 56.7659 18.7603H56.3249V18.1663ZM59.5969 12.1003H60.2629V18.7603H59.5969V12.1003Z" fill="#003D31"/>
<path d="M95.9295 18.8683C95.2995 18.8683 94.7685 18.8353 94.3365 18.7693C93.9105 18.7033 93.5655 18.5983 93.3015 18.4543C93.0375 18.3103 92.8455 18.1213 92.7255 17.8873C92.6115 17.6473 92.5545 17.3563 92.5545 17.0143C92.5545 16.7743 92.5845 16.5283 92.6445 16.2763C92.7105 16.0243 92.8095 15.7453 92.9415 15.4393L93.4995 15.6103C93.2535 16.1203 93.1305 16.5583 93.1305 16.9243C93.1305 17.2903 93.3045 17.5603 93.6525 17.7343C94.0005 17.9023 94.5495 17.9863 95.2995 17.9863H96.5595C96.9855 17.9863 97.3365 17.9743 97.6125 17.9503C97.8885 17.9263 98.1075 17.8843 98.2695 17.8243C98.4315 17.7643 98.5425 17.6833 98.6025 17.5813C98.6685 17.4733 98.7015 17.3383 98.7015 17.1763C98.7015 17.0743 98.6955 16.9483 98.6835 16.7983C98.6715 16.6423 98.6415 16.4383 98.5935 16.1863L98.4585 15.4393L99.0885 15.3403L99.2055 16.0873C99.2475 16.3573 99.2745 16.5793 99.2865 16.7533C99.3045 16.9213 99.3135 17.0623 99.3135 17.1763C99.3135 17.4883 99.2535 17.7523 99.1335 17.9683C99.0195 18.1843 98.8275 18.3583 98.5575 18.4903C98.2935 18.6223 97.9455 18.7183 97.5135 18.7783C97.0875 18.8383 96.5595 18.8683 95.9295 18.8683ZM96.4335 15.4393C96.3135 15.4393 96.2175 15.4063 96.1455 15.3403C96.0735 15.2683 96.0375 15.1543 96.0375 14.9983C96.0375 14.8423 96.0735 14.7313 96.1455 14.6653C96.2175 14.5933 96.3135 14.5573 96.4335 14.5573H96.5325C96.6525 14.5573 96.7485 14.5933 96.8205 14.6653C96.8925 14.7313 96.9285 14.8423 96.9285 14.9983C96.9285 15.1543 96.8925 15.2683 96.8205 15.3403C96.7485 15.4063 96.6525 15.4393 96.5325 15.4393H96.4335ZM95.2725 15.4393C95.1525 15.4393 95.0565 15.4063 94.9845 15.3403C94.9125 15.2683 94.8765 15.1543 94.8765 14.9983C94.8765 14.8423 94.9125 14.7313 94.9845 14.6653C95.0565 14.5933 95.1525 14.5573 95.2725 14.5573H95.3715C95.4915 14.5573 95.5875 14.5933 95.6595 14.6653C95.7315 14.7313 95.7675 14.8423 95.7675 14.9983C95.7675 15.1543 95.7315 15.2683 95.6595 15.3403C95.5875 15.4063 95.4915 15.4393 95.3715 15.4393H95.2725ZM100.392 12.1003H101.058V18.7603H100.392V12.1003ZM102.036 20.1463H102.513C103.167 20.1463 103.671 20.0233 104.025 19.7773C104.385 19.5373 104.607 19.1983 104.691 18.7603H103.638C103.158 18.7603 102.786 18.6343 102.522 18.3823C102.258 18.1303 102.126 17.7763 102.126 17.3203C102.126 17.0503 102.165 16.7953 102.243 16.5553C102.327 16.3153 102.441 16.1083 102.585 15.9343C102.729 15.7543 102.9 15.6133 103.098 15.5113C103.302 15.4033 103.524 15.3493 103.764 15.3493C104.262 15.3493 104.652 15.5713 104.934 16.0153C105.222 16.4593 105.366 17.0833 105.366 17.8873V17.9863H105.78V18.5803L105.6 18.7603H105.285C105.153 19.4503 104.856 19.9813 104.394 20.3533C103.938 20.7313 103.311 20.9203 102.513 20.9203H102.036V20.1463ZM102.756 17.2303C102.756 17.4943 102.825 17.6863 102.963 17.8063C103.107 17.9263 103.332 17.9863 103.638 17.9863H104.736V17.7073C104.736 17.2213 104.643 16.8373 104.457 16.5553C104.277 16.2673 104.028 16.1233 103.71 16.1233C103.404 16.1233 103.167 16.2253 102.999 16.4293C102.837 16.6333 102.756 16.9003 102.756 17.2303ZM105.602 18.1663L105.782 17.9863H106.097C106.607 17.9863 106.862 17.7313 106.862 17.2213V15.7993H107.492V17.2213C107.492 17.7313 107.747 17.9863 108.257 17.9863H108.572V18.5803L108.392 18.7603C107.564 18.7603 107.078 18.4663 106.934 17.8783H106.889C106.823 18.2083 106.694 18.4393 106.502 18.5713C106.31 18.6973 106.01 18.7603 105.602 18.7603V18.1663ZM107.123 14.7193C107.003 14.7193 106.907 14.6863 106.835 14.6203C106.763 14.5483 106.727 14.4343 106.727 14.2783C106.727 14.1223 106.763 14.0113 106.835 13.9453C106.907 13.8733 107.003 13.8373 107.123 13.8373H107.222C107.342 13.8373 107.438 13.8733 107.51 13.9453C107.582 14.0113 107.618 14.1223 107.618 14.2783C107.618 14.4343 107.582 14.5483 107.51 14.6203C107.438 14.6863 107.342 14.7193 107.222 14.7193H107.123ZM108.388 18.1663L108.568 17.9863H108.883C108.997 17.9863 109.096 17.9773 109.18 17.9593C109.27 17.9353 109.351 17.8963 109.423 17.8423C109.495 17.7883 109.561 17.7163 109.621 17.6263C109.687 17.5363 109.756 17.4193 109.828 17.2753L110.215 16.5193L110.728 16.7803L110.251 17.6803L110.377 17.7613C110.569 17.8873 110.755 17.9743 110.935 18.0223C111.121 18.0703 111.301 18.0943 111.475 18.0943C111.757 18.0943 111.964 18.0283 112.096 17.8963C112.234 17.7643 112.303 17.5393 112.303 17.2213V16.5193H112.933V17.2213C112.933 17.5453 112.978 17.7733 113.068 17.9053C113.158 18.0313 113.314 18.0943 113.536 18.0943H113.716C114.1 18.0943 114.292 17.9023 114.292 17.5183C114.292 17.4223 114.286 17.2993 114.274 17.1493C114.268 16.9933 114.25 16.8283 114.22 16.6543L114.148 16.1593L114.769 16.0783L114.832 16.5553C114.856 16.7413 114.874 16.9183 114.886 17.0863C114.898 17.2543 114.904 17.3983 114.904 17.5183C114.904 17.9323 114.793 18.2623 114.571 18.5083C114.349 18.7483 114.034 18.8683 113.626 18.8683C112.918 18.8683 112.504 18.5683 112.384 17.9683H112.339C112.279 18.2563 112.162 18.4783 111.988 18.6343C111.82 18.7903 111.598 18.8683 111.322 18.8683C110.962 18.8683 110.563 18.7273 110.125 18.4453L109.846 18.2653C109.672 18.4573 109.474 18.5893 109.252 18.6613C109.03 18.7273 108.742 18.7603 108.388 18.7603V18.1663ZM121.918 13.1443H119.164L118.984 15.5383H119.047C119.197 15.3283 119.365 15.1603 119.551 15.0343C119.743 14.9083 120.004 14.8453 120.334 14.8453C120.604 14.8453 120.853 14.8903 121.081 14.9803C121.309 15.0703 121.507 15.1993 121.675 15.3673C121.843 15.5293 121.972 15.7303 122.062 15.9703C122.158 16.2103 122.206 16.4833 122.206 16.7893C122.206 17.0953 122.158 17.3773 122.062 17.6353C121.966 17.8873 121.825 18.1063 121.639 18.2923C121.459 18.4723 121.237 18.6133 120.973 18.7153C120.715 18.8173 120.421 18.8683 120.091 18.8683C119.827 18.8683 119.593 18.8383 119.389 18.7783C119.191 18.7183 119.014 18.6373 118.858 18.5353C118.702 18.4333 118.564 18.3193 118.444 18.1933C118.33 18.0673 118.225 17.9353 118.129 17.7973L118.696 17.3653C118.774 17.4913 118.855 17.6053 118.939 17.7073C119.029 17.8093 119.125 17.8963 119.227 17.9683C119.335 18.0403 119.458 18.0973 119.596 18.1393C119.734 18.1753 119.899 18.1933 120.091 18.1933C120.523 18.1933 120.85 18.0793 121.072 17.8513C121.294 17.6233 121.405 17.3023 121.405 16.8883V16.7983C121.405 16.3843 121.294 16.0633 121.072 15.8353C120.85 15.6073 120.523 15.4933 120.091 15.4933C119.803 15.4933 119.575 15.5473 119.407 15.6553C119.245 15.7573 119.098 15.8803 118.966 16.0243L118.327 15.9343L118.552 12.4783H121.918V13.1443Z" fill="#003D31"/>
<path d="M158.2 18.7603C157.924 18.7603 157.69 18.7393 157.498 18.6973C157.312 18.6493 157.159 18.5743 157.039 18.4723C156.925 18.3643 156.841 18.2293 156.787 18.0673C156.733 17.8993 156.706 17.6923 156.706 17.4463V17.2933H156.661C156.577 17.5633 156.433 17.7673 156.229 17.9053C156.031 18.0373 155.791 18.1033 155.509 18.1033C155.107 18.1033 154.792 17.9953 154.564 17.7793C154.342 17.5633 154.231 17.2573 154.231 16.8613C154.231 16.6933 154.258 16.5373 154.312 16.3933C154.366 16.2433 154.453 16.0993 154.573 15.9613C154.699 15.8173 154.858 15.6763 155.05 15.5383C155.242 15.3943 155.476 15.2443 155.752 15.0883L156.661 14.5663V14.1163H157.291V17.3563C157.291 17.6023 157.354 17.7703 157.48 17.8603C157.606 17.9443 157.801 17.9863 158.065 17.9863H158.38V18.5803L158.2 18.7603ZM155.644 17.3293C156.01 17.3293 156.271 17.2783 156.427 17.1763C156.583 17.0683 156.661 16.8793 156.661 16.6093V15.2953L155.752 15.7813C155.434 15.9553 155.206 16.1173 155.068 16.2673C154.93 16.4113 154.861 16.5793 154.861 16.7713C154.861 16.9633 154.918 17.1043 155.032 17.1943C155.152 17.2843 155.356 17.3293 155.644 17.3293ZM156.949 13.3693C156.829 13.3693 156.733 13.3363 156.661 13.2703C156.589 13.1983 156.553 13.0843 156.553 12.9283C156.553 12.7723 156.589 12.6613 156.661 12.5953C156.733 12.5233 156.829 12.4873 156.949 12.4873H157.048C157.168 12.4873 157.264 12.5233 157.336 12.5953C157.408 12.6613 157.444 12.7723 157.444 12.9283C157.444 13.0843 157.408 13.1983 157.336 13.2703C157.264 13.3363 157.168 13.3693 157.048 13.3693H156.949ZM155.788 13.3693C155.668 13.3693 155.572 13.3363 155.5 13.2703C155.428 13.1983 155.392 13.0843 155.392 12.9283C155.392 12.7723 155.428 12.6613 155.5 12.5953C155.572 12.5233 155.668 12.4873 155.788 12.4873H155.887C156.007 12.4873 156.103 12.5233 156.175 12.5953C156.247 12.6613 156.283 12.7723 156.283 12.9283C156.283 13.0843 156.247 13.1983 156.175 13.2703C156.103 13.3363 156.007 13.3693 155.887 13.3693H155.788ZM158.196 18.1663L158.376 17.9863H158.691C159.201 17.9863 159.456 17.7313 159.456 17.2213V15.7993H160.086V17.2213C160.086 17.7313 160.341 17.9863 160.851 17.9863H161.166V18.5803L160.986 18.7603C160.158 18.7603 159.672 18.4663 159.528 17.8783H159.483C159.417 18.2083 159.288 18.4393 159.096 18.5713C158.904 18.6973 158.604 18.7603 158.196 18.7603V18.1663ZM159.717 14.7193C159.597 14.7193 159.501 14.6863 159.429 14.6203C159.357 14.5483 159.321 14.4343 159.321 14.2783C159.321 14.1223 159.357 14.0113 159.429 13.9453C159.501 13.8733 159.597 13.8373 159.717 13.8373H159.816C159.936 13.8373 160.032 13.8733 160.104 13.9453C160.176 14.0113 160.212 14.1223 160.212 14.2783C160.212 14.4343 160.176 14.5483 160.104 14.6203C160.032 14.6863 159.936 14.7193 159.816 14.7193H159.717ZM160.983 18.1663L161.163 17.9863H161.478C161.592 17.9863 161.691 17.9773 161.775 17.9593C161.865 17.9353 161.946 17.8963 162.018 17.8423C162.09 17.7883 162.156 17.7163 162.216 17.6263C162.282 17.5363 162.351 17.4193 162.423 17.2753L162.81 16.5193L163.323 16.7803L162.846 17.6803L162.972 17.7613C163.164 17.8873 163.35 17.9743 163.53 18.0223C163.716 18.0703 163.896 18.0943 164.07 18.0943C164.352 18.0943 164.559 18.0283 164.691 17.8963C164.829 17.7643 164.898 17.5393 164.898 17.2213V16.5193H165.528V17.2213C165.528 17.5453 165.573 17.7733 165.663 17.9053C165.753 18.0313 165.909 18.0943 166.131 18.0943H166.311C166.695 18.0943 166.887 17.9023 166.887 17.5183C166.887 17.4223 166.881 17.2993 166.869 17.1493C166.863 16.9933 166.845 16.8283 166.815 16.6543L166.743 16.1593L167.364 16.0783L167.427 16.5553C167.451 16.7413 167.469 16.9183 167.481 17.0863C167.493 17.2543 167.499 17.3983 167.499 17.5183C167.499 17.9323 167.388 18.2623 167.166 18.5083C166.944 18.7483 166.629 18.8683 166.221 18.8683C165.513 18.8683 165.099 18.5683 164.979 17.9683H164.934C164.874 18.2563 164.757 18.4783 164.583 18.6343C164.415 18.7903 164.193 18.8683 163.917 18.8683C163.557 18.8683 163.158 18.7273 162.72 18.4453L162.441 18.2653C162.267 18.4573 162.069 18.5893 161.847 18.6613C161.625 18.7273 161.337 18.7603 160.983 18.7603V18.1663Z" fill="#003D31"/>
<path d="M198.547 20.1463H198.88C199.21 20.1463 199.48 20.0983 199.69 20.0023C199.9 19.9063 200.065 19.7773 200.185 19.6153C200.305 19.4593 200.389 19.2733 200.437 19.0573C200.485 18.8473 200.509 18.6253 200.509 18.3913C200.509 18.2173 200.5 18.0373 200.482 17.8513C200.464 17.6593 200.44 17.4763 200.41 17.3023L200.221 16.2853L200.851 16.1593L200.968 16.8433C201.004 17.0533 201.031 17.2513 201.049 17.4373C201.073 17.6233 201.091 17.8063 201.103 17.9863H201.958V18.5803L201.778 18.7603H201.094C201.07 19.0543 201.013 19.3303 200.923 19.5883C200.839 19.8523 200.71 20.0833 200.536 20.2813C200.368 20.4793 200.146 20.6353 199.87 20.7493C199.6 20.8633 199.27 20.9203 198.88 20.9203H198.547V20.1463ZM203.518 21.1903C203.338 20.9023 203.191 20.6653 203.077 20.4793C202.969 20.2933 202.885 20.1343 202.825 20.0023C202.765 19.8763 202.726 19.7683 202.708 19.6783C202.69 19.5883 202.681 19.4923 202.681 19.3903C202.681 19.1023 202.78 18.7903 202.978 18.4543L202.942 18.4273C202.822 18.5533 202.675 18.6403 202.501 18.6883C202.333 18.7363 202.093 18.7603 201.781 18.7603V18.1663L201.961 17.9863H202.276C202.486 17.9863 202.66 17.9353 202.798 17.8333C202.942 17.7253 203.083 17.5393 203.221 17.2753L203.608 16.5193L204.112 16.7893L203.779 17.4463C203.617 17.7703 203.494 18.0523 203.41 18.2923C203.332 18.5263 203.293 18.7483 203.293 18.9583C203.293 19.0603 203.299 19.1563 203.311 19.2463C203.329 19.3363 203.362 19.4383 203.41 19.5523C203.458 19.6663 203.527 19.7983 203.617 19.9483C203.707 20.0983 203.824 20.2813 203.968 20.4973L204.661 18.6793C204.763 18.4213 204.871 18.2413 204.985 18.1393C205.099 18.0373 205.261 17.9863 205.471 17.9863H206.173V18.5803L205.993 18.7603H205.264L204.337 21.1903H203.518ZM205.991 18.1663L206.171 17.9863H206.486C206.6 17.9863 206.699 17.9773 206.783 17.9593C206.873 17.9353 206.954 17.8963 207.026 17.8423C207.098 17.7883 207.164 17.7163 207.224 17.6263C207.29 17.5363 207.359 17.4193 207.431 17.2753L207.818 16.5193L208.331 16.7803L207.854 17.6803L207.98 17.7613C208.172 17.8873 208.358 17.9743 208.538 18.0223C208.724 18.0703 208.904 18.0943 209.078 18.0943C209.36 18.0943 209.567 18.0283 209.699 17.8963C209.837 17.7643 209.906 17.5393 209.906 17.2213V16.5193H210.536V17.2213C210.536 17.5453 210.581 17.7733 210.671 17.9053C210.761 18.0313 210.917 18.0943 211.139 18.0943H211.319C211.703 18.0943 211.895 17.9023 211.895 17.5183C211.895 17.4223 211.889 17.2993 211.877 17.1493C211.871 16.9933 211.853 16.8283 211.823 16.6543L211.751 16.1593L212.372 16.0783L212.435 16.5553C212.459 16.7413 212.477 16.9183 212.489 17.0863C212.501 17.2543 212.507 17.3983 212.507 17.5183C212.507 17.9323 212.396 18.2623 212.174 18.5083C211.952 18.7483 211.637 18.8683 211.229 18.8683C210.521 18.8683 210.107 18.5683 209.987 17.9683H209.942C209.882 18.2563 209.765 18.4783 209.591 18.6343C209.423 18.7903 209.201 18.8683 208.925 18.8683C208.565 18.8683 208.166 18.7273 207.728 18.4453L207.449 18.2653C207.275 18.4573 207.077 18.5893 206.855 18.6613C206.633 18.7273 206.345 18.7603 205.991 18.7603V18.1663ZM210.752 15.4393C210.632 15.4393 210.536 15.4063 210.464 15.3403C210.392 15.2683 210.356 15.1543 210.356 14.9983C210.356 14.8423 210.392 14.7313 210.464 14.6653C210.536 14.5933 210.632 14.5573 210.752 14.5573H210.851C210.971 14.5573 211.067 14.5933 211.139 14.6653C211.211 14.7313 211.247 14.8423 211.247 14.9983C211.247 15.1543 211.211 15.2683 211.139 15.3403C211.067 15.4063 210.971 15.4393 210.851 15.4393H210.752ZM209.591 15.4393C209.471 15.4393 209.375 15.4063 209.303 15.3403C209.231 15.2683 209.195 15.1543 209.195 14.9983C209.195 14.8423 209.231 14.7313 209.303 14.6653C209.375 14.5933 209.471 14.5573 209.591 14.5573H209.69C209.81 14.5573 209.906 14.5933 209.978 14.6653C210.05 14.7313 210.086 14.8423 210.086 14.9983C210.086 15.1543 210.05 15.2683 209.978 15.3403C209.906 15.4063 209.81 15.4393 209.69 15.4393H209.591ZM210.167 14.3503C210.053 14.3503 209.96 14.3173 209.888 14.2513C209.822 14.1793 209.789 14.0713 209.789 13.9273C209.789 13.7833 209.822 13.6783 209.888 13.6123C209.96 13.5403 210.053 13.5043 210.167 13.5043H210.275C210.389 13.5043 210.479 13.5403 210.545 13.6123C210.617 13.6783 210.653 13.7833 210.653 13.9273C210.653 14.0713 210.617 14.1793 210.545 14.2513C210.479 14.3173 210.389 14.3503 210.275 14.3503H210.167Z" fill="#003D31"/>
<path d="M247.056 21.4963C246.666 21.4963 246.309 21.4453 245.985 21.3433C245.667 21.2473 245.394 21.1003 245.166 20.9023C244.938 20.7043 244.761 20.4613 244.635 20.1733C244.515 19.8853 244.455 19.5523 244.455 19.1743C244.455 18.6883 244.602 18.2473 244.896 17.8513C245.196 17.4493 245.619 17.1313 246.165 16.8973V16.8523C245.823 16.6423 245.556 16.3873 245.364 16.0873C245.178 15.7813 245.085 15.4603 245.085 15.1243C245.085 14.8543 245.13 14.6083 245.22 14.3863C245.31 14.1643 245.43 13.9753 245.58 13.8193C245.736 13.6573 245.919 13.5343 246.129 13.4503C246.339 13.3603 246.561 13.3153 246.795 13.3153C247.137 13.3153 247.434 13.3873 247.686 13.5313C247.938 13.6693 248.148 13.8673 248.316 14.1253L247.866 14.6473C247.71 14.4553 247.542 14.3143 247.362 14.2243C247.188 14.1343 246.987 14.0893 246.759 14.0893C246.417 14.0893 246.156 14.1853 245.976 14.3773C245.802 14.5633 245.715 14.8123 245.715 15.1243C245.715 15.3223 245.751 15.4933 245.823 15.6373C245.901 15.7813 246.006 15.8983 246.138 15.9883C246.27 16.0783 246.426 16.1473 246.606 16.1953C246.792 16.2373 246.993 16.2583 247.209 16.2583C247.461 16.2583 247.722 16.2313 247.992 16.1773L248.721 16.0423L248.856 16.7443L247.668 16.9963C246.798 17.1823 246.156 17.4313 245.742 17.7433C245.328 18.0493 245.121 18.4423 245.121 18.9223V19.1023C245.121 19.6063 245.292 19.9963 245.634 20.2723C245.982 20.5483 246.456 20.6863 247.056 20.6863C247.446 20.6863 247.803 20.6143 248.127 20.4703C248.457 20.3323 248.775 20.1043 249.081 19.7863L249.567 20.3893C249.195 20.7793 248.808 21.0613 248.406 21.2353C248.01 21.4093 247.56 21.4963 247.056 21.4963ZM249.691 20.1463H250.168C250.822 20.1463 251.326 20.0233 251.68 19.7773C252.04 19.5373 252.262 19.1983 252.346 18.7603H251.293C250.813 18.7603 250.441 18.6343 250.177 18.3823C249.913 18.1303 249.781 17.7763 249.781 17.3203C249.781 17.0503 249.82 16.7953 249.898 16.5553C249.982 16.3153 250.096 16.1083 250.24 15.9343C250.384 15.7543 250.555 15.6133 250.753 15.5113C250.957 15.4033 251.179 15.3493 251.419 15.3493C251.917 15.3493 252.307 15.5713 252.589 16.0153C252.877 16.4593 253.021 17.0833 253.021 17.8873V17.9863H253.435V18.5803L253.255 18.7603H252.94C252.808 19.4503 252.511 19.9813 252.049 20.3533C251.593 20.7313 250.966 20.9203 250.168 20.9203H249.691V20.1463ZM250.411 17.2303C250.411 17.4943 250.48 17.6863 250.618 17.8063C250.762 17.9263 250.987 17.9863 251.293 17.9863H252.391V17.7073C252.391 17.2213 252.298 16.8373 252.112 16.5553C251.932 16.2673 251.683 16.1233 251.365 16.1233C251.059 16.1233 250.822 16.2253 250.654 16.4293C250.492 16.6333 250.411 16.9003 250.411 17.2303ZM253.257 18.1663L253.437 17.9863H253.752C254.262 17.9863 254.517 17.7313 254.517 17.2213V15.7993H255.147V17.2213C255.147 17.7313 255.402 17.9863 255.912 17.9863H256.227V18.5803L256.047 18.7603C255.219 18.7603 254.733 18.4663 254.589 17.8783H254.544C254.478 18.2083 254.349 18.4393 254.157 18.5713C253.965 18.6973 253.665 18.7603 253.257 18.7603V18.1663ZM254.778 20.5603C254.658 20.5603 254.562 20.5243 254.49 20.4523C254.418 20.3863 254.382 20.2753 254.382 20.1193C254.382 19.9633 254.418 19.8493 254.49 19.7773C254.562 19.7113 254.658 19.6783 254.778 19.6783H254.877C254.997 19.6783 255.093 19.7113 255.165 19.7773C255.237 19.8493 255.273 19.9633 255.273 20.1193C255.273 20.2753 255.237 20.3863 255.165 20.4523C255.093 20.5243 254.997 20.5603 254.877 20.5603H254.778ZM256.043 18.1663L256.223 17.9863H256.538C256.652 17.9863 256.751 17.9773 256.835 17.9593C256.925 17.9353 257.006 17.8963 257.078 17.8423C257.15 17.7883 257.216 17.7163 257.276 17.6263C257.342 17.5363 257.411 17.4193 257.483 17.2753L257.87 16.5193L258.383 16.7803L257.906 17.6803L258.032 17.7613C258.224 17.8873 258.41 17.9743 258.59 18.0223C258.776 18.0703 258.956 18.0943 259.13 18.0943C259.412 18.0943 259.619 18.0283 259.751 17.8963C259.889 17.7643 259.958 17.5393 259.958 17.2213V16.5193H260.588V17.2213C260.588 17.5453 260.633 17.7733 260.723 17.9053C260.813 18.0313 260.969 18.0943 261.191 18.0943H261.371C261.755 18.0943 261.947 17.9023 261.947 17.5183C261.947 17.4223 261.941 17.2993 261.929 17.1493C261.923 16.9933 261.905 16.8283 261.875 16.6543L261.803 16.1593L262.424 16.0783L262.487 16.5553C262.511 16.7413 262.529 16.9183 262.541 17.0863C262.553 17.2543 262.559 17.3983 262.559 17.5183C262.559 17.9323 262.448 18.2623 262.226 18.5083C262.004 18.7483 261.689 18.8683 261.281 18.8683C260.573 18.8683 260.159 18.5683 260.039 17.9683H259.994C259.934 18.2563 259.817 18.4783 259.643 18.6343C259.475 18.7903 259.253 18.8683 258.977 18.8683C258.617 18.8683 258.218 18.7273 257.78 18.4453L257.501 18.2653C257.327 18.4573 257.129 18.5893 256.907 18.6613C256.685 18.7273 256.397 18.7603 256.043 18.7603V18.1663ZM263.639 13.1983H264.305V18.7603H263.639V13.1983ZM263.054 11.9383H263.378L263.387 11.9023C263.339 11.8423 263.3 11.7733 263.27 11.6953C263.24 11.6113 263.225 11.5273 263.225 11.4433C263.225 11.2093 263.303 11.0143 263.459 10.8583C263.615 10.7023 263.813 10.6243 264.053 10.6243C264.191 10.6243 264.332 10.6603 264.476 10.7323C264.62 10.7983 264.728 10.8883 264.8 11.0023L264.467 11.4073C264.347 11.2693 264.209 11.2003 264.053 11.2003C263.945 11.2003 263.855 11.2303 263.783 11.2903C263.711 11.3443 263.675 11.4133 263.675 11.4973C263.675 11.6233 263.732 11.7223 263.846 11.7943C263.96 11.8663 264.119 11.9023 264.323 11.9023H264.899V12.4783H263.054V11.9383Z" fill="#003D31"/>
<rect x="280" y="3.76025" width="44" height="24" rx="12" fill="#003D31"/>
<path d="M297.22 19.1563C297.22 18.5863 297.343 18.1693 297.589 17.9053C297.835 17.6353 298.222 17.5003 298.75 17.5003H300.64V17.4913C300.64 16.9753 300.541 16.5733 300.343 16.2853C300.151 15.9973 299.878 15.8533 299.524 15.8533C299.098 15.8533 298.738 16.0783 298.444 16.5283L297.931 16.0423C298.105 15.7723 298.327 15.5443 298.597 15.3583C298.873 15.1723 299.182 15.0793 299.524 15.0793C300.076 15.0793 300.505 15.2923 300.811 15.7183C301.117 16.1383 301.27 16.7293 301.27 17.4913V18.2743H298.75C298.438 18.2743 298.21 18.3463 298.066 18.4903C297.922 18.6343 297.85 18.8623 297.85 19.1743V21.4963H297.22V19.1563ZM301.978 20.1463H302.455C303.109 20.1463 303.613 20.0233 303.967 19.7773C304.327 19.5373 304.549 19.1983 304.633 18.7603H303.58C303.1 18.7603 302.728 18.6343 302.464 18.3823C302.2 18.1303 302.068 17.7763 302.068 17.3203C302.068 17.0503 302.107 16.7953 302.185 16.5553C302.269 16.3153 302.383 16.1083 302.527 15.9343C302.671 15.7543 302.842 15.6133 303.04 15.5113C303.244 15.4033 303.466 15.3493 303.706 15.3493C304.204 15.3493 304.594 15.5713 304.876 16.0153C305.164 16.4593 305.308 17.0833 305.308 17.8873V17.9863H305.722V18.5803L305.542 18.7603H305.227C305.095 19.4503 304.798 19.9813 304.336 20.3533C303.88 20.7313 303.253 20.9203 302.455 20.9203H301.978V20.1463ZM302.698 17.2303C302.698 17.4943 302.767 17.6863 302.905 17.8063C303.049 17.9263 303.274 17.9863 303.58 17.9863H304.678V17.7073C304.678 17.2213 304.585 16.8373 304.399 16.5553C304.219 16.2673 303.97 16.1233 303.652 16.1233C303.346 16.1233 303.109 16.2253 302.941 16.4293C302.779 16.6333 302.698 16.9003 302.698 17.2303ZM305.544 18.1663L305.724 17.9863H305.859C306.255 17.9863 306.54 17.9383 306.714 17.8423C306.894 17.7403 306.984 17.5483 306.984 17.2663C306.984 17.1583 306.975 17.0203 306.957 16.8523C306.945 16.6843 306.915 16.4623 306.867 16.1863L306.741 15.4393L307.371 15.3403L307.479 16.0873C307.521 16.3813 307.551 16.6213 307.569 16.8073C307.587 16.9933 307.596 17.1463 307.596 17.2663C307.596 17.7703 307.446 18.1453 307.146 18.3913C306.852 18.6373 306.423 18.7603 305.859 18.7603H305.544V18.1663ZM307.497 20.5603C307.377 20.5603 307.281 20.5243 307.209 20.4523C307.137 20.3863 307.101 20.2753 307.101 20.1193C307.101 19.9633 307.137 19.8493 307.209 19.7773C307.281 19.7113 307.377 19.6783 307.497 19.6783H307.596C307.716 19.6783 307.812 19.7113 307.884 19.7773C307.956 19.8493 307.992 19.9633 307.992 20.1193C307.992 20.2753 307.956 20.3863 307.884 20.4523C307.812 20.5243 307.716 20.5603 307.596 20.5603H307.497ZM306.336 20.5603C306.216 20.5603 306.12 20.5243 306.048 20.4523C305.976 20.3863 305.94 20.2753 305.94 20.1193C305.94 19.9633 305.976 19.8493 306.048 19.7773C306.12 19.7113 306.216 19.6783 306.336 19.6783H306.435C306.555 19.6783 306.651 19.7113 306.723 19.7773C306.795 19.8493 306.831 19.9633 306.831 20.1193C306.831 20.2753 306.795 20.3863 306.723 20.4523C306.651 20.5243 306.555 20.5603 306.435 20.5603H306.336Z" fill="white"/>
</svg>
