<svg width="19" height="24" viewBox="0 0 19 24" fill="none" xmlns="http://www.w3.org/2000/svg">
<path id="Vector" d="M18.4057 8.18608C18.302 8.25293 15.8339 9.66372 15.8339 12.7918C15.9502 16.3591 18.9486 17.6102 19 17.6102C18.9486 17.677 18.5473 19.3144 17.3588 21.0308C16.4155 22.5093 15.3686 24 13.7788 24C12.2665 24 11.7237 23.0146 9.97877 23.0146C8.1049 23.0146 7.57468 24 6.13999 24C4.55019 24 3.42569 22.4295 2.43101 20.9648C1.13877 19.0479 0.0404128 16.0396 0.00163718 13.1512C-0.0244942 11.6206 0.260422 10.116 0.983671 8.83808C2.00448 7.05397 3.82694 5.84286 5.81714 5.80292C7.34203 5.74996 8.69918 6.8812 9.62979 6.8812C10.5216 6.8812 12.189 5.80292 14.0755 5.80292C14.8898 5.80379 17.0612 6.05643 18.4057 8.18608ZM9.50082 5.49732C9.22939 4.09955 9.97877 2.70178 10.6767 1.81016C11.5686 0.731877 12.9771 0 14.1918 0C14.2694 1.39777 13.7779 2.76863 12.8996 3.76704C12.1114 4.84532 10.7543 5.65707 9.50082 5.49732Z" fill="white"/>
</svg>
