<svg width="28" height="28" viewBox="0 0 28 28" fill="none" xmlns="http://www.w3.org/2000/svg">
<path d="M18.8883 2.3335H9.11159C4.86492 2.3335 2.33325 4.86516 2.33325 9.11183V18.8768C2.33325 23.1352 4.86492 25.6668 9.11159 25.6668H18.8766C23.1233 25.6668 25.6549 23.1352 25.6549 18.8885V9.11183C25.6666 4.86516 23.1349 2.3335 18.8883 2.3335ZM11.5616 18.8885C11.5616 19.6352 10.9549 20.2418 10.1966 20.2418C9.44992 20.2418 8.84325 19.6352 8.84325 18.8885V15.0852C8.84325 14.3385 9.44992 13.7318 10.1966 13.7318C10.9549 13.7318 11.5616 14.3385 11.5616 15.0852V18.8885ZM19.1566 18.8885C19.1566 19.6352 18.5499 20.2418 17.8033 20.2418C17.0449 20.2418 16.4383 19.6352 16.4383 18.8885V9.11183C16.4383 8.36516 17.0449 7.7585 17.8033 7.7585C18.5499 7.7585 19.1566 8.36516 19.1566 9.11183V18.8885Z" fill="#003D31"/>
</svg>
