<svg width="108" height="104" viewBox="0 0 108 104" fill="none" xmlns="http://www.w3.org/2000/svg">
<path d="M51.8394 0C23.2111 0 0 23.283 0 52C0 80.717 23.2111 104 51.8394 104C80.4677 104 103.679 80.717 103.679 52C103.679 42.556 101.13 33.7269 96.7433 26.0931L48.1523 74.8262C47.3444 75.6365 46.247 76.0957 45.0979 76.0957C43.9531 76.0957 42.8514 75.6408 42.0436 74.8262L22.8063 55.5293C21.1172 53.835 21.1172 51.096 22.8063 49.4017C24.4954 47.7074 27.2259 47.7074 28.915 49.4017L45.0979 65.6348L91.7568 18.8314C82.2486 7.32638 67.901 0 51.8394 0ZM91.7568 18.8314C93.6215 21.0872 95.2711 23.5302 96.7433 26.0846L106.733 16.0638C108.422 14.3651 108.422 11.6305 106.733 9.9362C105.044 8.24186 102.314 8.24187 100.624 9.9362L91.7568 18.8314Z" fill="#47B881"/>
</svg>
