<svg width="100" height="72" viewBox="0 0 100 72" fill="none" xmlns="http://www.w3.org/2000/svg">
<path d="M93.7082 0.00372839H6.2955C2.82064 0.00372839 0.0037119 2.83282 0.0037119 6.32269V65.6776C0.0037119 69.1674 2.82064 71.9965 6.2955 71.9965H93.7082C97.1831 71.9965 100 69.1674 100 65.6776V6.32269C100 2.83282 97.1831 0.00372839 93.7082 0.00372839Z" fill="url(#paint0_linear_651_3115)"/>
<path d="M93.7082 0.00372839H6.2955C2.82064 0.00372839 0.0037119 2.83282 0.0037119 6.32269V65.6776C0.0037119 69.1674 2.82064 71.9965 6.2955 71.9965H93.7082C97.1831 71.9965 100 69.1674 100 65.6776V6.32269C100 2.83282 97.1831 0.00372839 93.7082 0.00372839Z" fill="url(#paint1_linear_651_3115)"/>
<path d="M50.0001 0.00361192V72H6.2955C4.62681 72 3.02647 71.3343 1.84653 70.1492C0.666595 68.9642 0.0037119 67.3569 0.0037119 65.681V6.31896C0.0037119 2.83089 2.81884 1.3515e-06 6.2955 1.3515e-06L50.0001 0.00361192Z" fill="url(#paint2_linear_651_3115)"/>
<path d="M50.0001 0.00361192V72H6.2955C4.62681 72 3.02647 71.3343 1.84653 70.1492C0.666595 68.9642 0.0037119 67.3569 0.0037119 65.681V6.31896C0.0037119 2.83089 2.81884 1.3515e-06 6.2955 1.3515e-06L50.0001 0.00361192Z" fill="url(#paint3_radial_651_3115)"/>
<path d="M50.0001 0.00361192V72H93.7045C95.3732 72 96.9735 71.3343 98.1535 70.1492C99.3334 68.9642 99.9963 67.3569 99.9963 65.681V6.31896C99.9963 4.64307 99.3334 3.03581 98.1535 1.85078C96.9735 0.665744 95.3732 0 93.7045 0L50.0001 0.00361192Z" fill="url(#paint4_linear_651_3115)"/>
<path d="M50.0001 0.00361192V72H93.7045C95.3732 72 96.9735 71.3343 98.1535 70.1492C99.3334 68.9642 99.9963 67.3569 99.9963 65.681V6.31896C99.9963 4.64307 99.3334 3.03581 98.1535 1.85078C96.9735 0.665744 95.3732 0 93.7045 0L50.0001 0.00361192Z" fill="url(#paint5_linear_651_3115)"/>
<path d="M50.0001 0.00361192V72H93.7045C95.3732 72 96.9735 71.3343 98.1535 70.1492C99.3334 68.9642 99.9963 67.3569 99.9963 65.681V6.31896C99.9963 4.64307 99.3334 3.03581 98.1535 1.85078C96.9735 0.665744 95.3732 0 93.7045 0L50.0001 0.00361192Z" fill="url(#paint6_linear_651_3115)"/>
<path d="M50.0001 0.00361192V72H93.7045C95.3732 72 96.9735 71.3343 98.1535 70.1492C99.3334 68.9642 99.9963 67.3569 99.9963 65.681V6.31896C99.9963 4.64307 99.3334 3.03581 98.1535 1.85078C96.9735 0.665744 95.3732 0 93.7045 0L50.0001 0.00361192Z" fill="url(#paint7_linear_651_3115)"/>
<path d="M0.0037119 65.6776C0.00308706 65.2109 0.120838 64.7517 0.346056 64.3435C0.571274 63.9354 0.896403 63.5917 1.29072 63.3448L49.209 33.2666C49.4375 33.1231 49.7017 33.0471 49.9712 33.0471C50.2407 33.0471 50.5048 33.1231 50.7334 33.2666L98.8134 63.529C99.5505 63.9912 100 64.8037 100 65.6776C100 67.3534 99.337 68.9606 98.1571 70.1456C96.9771 71.3306 95.3769 71.9965 93.7082 71.9965L6.29179 71.9964C4.6231 71.9964 3.02276 71.3306 1.84282 70.1456C0.662884 68.9606 2.76512e-07 67.3533 2.76512e-07 65.6774" fill="url(#paint8_linear_651_3115)"/>
<path d="M0.0037119 65.6776C0.00308706 65.2109 0.120838 64.7517 0.346056 64.3435C0.571274 63.9354 0.896403 63.5917 1.29072 63.3448L49.209 33.2666C49.4375 33.1231 49.7017 33.0471 49.9712 33.0471C50.2407 33.0471 50.5048 33.1231 50.7334 33.2666L98.8134 63.529C99.5505 63.9912 100 64.8037 100 65.6776C100 67.3534 99.337 68.9606 98.1571 70.1456C96.9771 71.3306 95.3769 71.9965 93.7082 71.9965L6.29179 71.9964C4.6231 71.9964 3.02276 71.3306 1.84282 70.1456C0.662884 68.9606 2.76512e-07 67.3533 2.76512e-07 65.6774" fill="url(#paint9_linear_651_3115)"/>
<path d="M0.0037119 65.6776C0.00308706 65.2109 0.120838 64.7517 0.346056 64.3435C0.571274 63.9354 0.896403 63.5917 1.29072 63.3448L49.209 33.2666C49.4375 33.1231 49.7017 33.0471 49.9712 33.0471C50.2407 33.0471 50.5048 33.1231 50.7334 33.2666L98.8134 63.529C99.5505 63.9912 100 64.8037 100 65.6776C100 67.3534 99.337 68.9606 98.1571 70.1456C96.9771 71.3306 95.3769 71.9965 93.7082 71.9965L6.29179 71.9964C4.6231 71.9964 3.02276 71.3306 1.84282 70.1456C0.662884 68.9606 2.76512e-07 67.3533 2.76512e-07 65.6774" fill="url(#paint10_linear_651_3115)"/>
<path d="M0.0037119 6.32269C0.00308706 6.78932 0.120837 7.24841 0.346055 7.65657C0.571273 8.06472 0.896403 8.40846 1.29072 8.65528L49.209 38.7335C49.4375 38.877 49.7017 38.9531 49.9712 38.9531C50.2407 38.9531 50.5048 38.877 50.7334 38.7335L98.8134 8.47113C99.1768 8.24391 99.4764 7.92736 99.6841 7.55142C99.8917 7.17548 100 6.75257 100 6.32269C100 4.64679 99.337 3.03954 98.1571 1.85451C96.9771 0.669474 95.3769 0.00372839 93.7082 0.00372839H6.29179C4.6231 0.00372839 3.02276 0.669474 1.84282 1.85451C0.662883 3.03954 0 4.64679 0 6.32269" fill="url(#paint11_linear_651_3115)"/>
<path d="M0.0037119 6.32269C0.00308706 6.78932 0.120837 7.24841 0.346055 7.65657C0.571273 8.06472 0.896403 8.40846 1.29072 8.65528L49.209 38.7335C49.4375 38.877 49.7017 38.9531 49.9712 38.9531C50.2407 38.9531 50.5048 38.877 50.7334 38.7335L98.8134 8.47113C99.1768 8.24391 99.4764 7.92736 99.6841 7.55142C99.8917 7.17548 100 6.75257 100 6.32269C100 4.64679 99.337 3.03954 98.1571 1.85451C96.9771 0.669474 95.3769 0.00372839 93.7082 0.00372839H6.29179C4.6231 0.00372839 3.02276 0.669474 1.84282 1.85451C0.662883 3.03954 0 4.64679 0 6.32269" fill="url(#paint12_linear_651_3115)"/>
<path d="M0.0037119 6.32269C0.00308706 6.78932 0.120837 7.24841 0.346055 7.65657C0.571273 8.06472 0.896403 8.40846 1.29072 8.65528L49.209 38.7335C49.4375 38.877 49.7017 38.9531 49.9712 38.9531C50.2407 38.9531 50.5048 38.877 50.7334 38.7335L98.8134 8.47113C99.1768 8.24391 99.4764 7.92736 99.6841 7.55142C99.8917 7.17548 100 6.75257 100 6.32269C100 4.64679 99.337 3.03954 98.1571 1.85451C96.9771 0.669474 95.3769 0.00372839 93.7082 0.00372839H6.29179C4.6231 0.00372839 3.02276 0.669474 1.84282 1.85451C0.662883 3.03954 0 4.64679 0 6.32269" fill="url(#paint13_linear_651_3115)"/>
<path d="M0.0037119 6.32269C0.00308706 6.78932 0.120837 7.24841 0.346055 7.65657C0.571273 8.06472 0.896403 8.40846 1.29072 8.65528L49.209 38.7335C49.4375 38.877 49.7017 38.9531 49.9712 38.9531C50.2407 38.9531 50.5048 38.877 50.7334 38.7335L98.8134 8.47113C99.1768 8.24391 99.4764 7.92736 99.6841 7.55142C99.8917 7.17548 100 6.75257 100 6.32269C100 4.64679 99.337 3.03954 98.1571 1.85451C96.9771 0.669474 95.3769 0.00372839 93.7082 0.00372839H6.29179C4.6231 0.00372839 3.02276 0.669474 1.84282 1.85451C0.662883 3.03954 0 4.64679 0 6.32269" fill="url(#paint14_radial_651_3115)"/>
<path d="M47.5875 62.9801C54.2622 62.9801 60.6636 60.3172 65.3834 55.577C70.1031 50.8369 72.7547 44.4079 72.7547 37.7043C72.7547 31.0007 70.1031 24.5717 65.3834 19.8316C60.6636 15.0915 54.2622 12.4285 47.5875 12.4285C40.9128 12.4285 34.5114 15.0915 29.7916 19.8316C25.0719 24.5717 22.4203 31.0007 22.4203 37.7043C22.4203 44.4079 25.0719 50.8369 29.7916 55.577C34.5114 60.3172 40.9128 62.9801 47.5875 62.9801Z" fill="#ADC1BD"/>
<path d="M49.831 61.2758C56.5057 61.2758 62.9071 58.6128 67.6268 53.8727C72.3466 49.1326 74.9981 42.7036 74.9981 36C74.9981 29.2964 72.3466 22.8674 67.6268 18.1273C62.9071 13.3872 56.5057 10.7242 49.831 10.7242C43.1562 10.7242 36.7549 13.3872 32.0351 18.1273C27.3153 22.8674 24.6638 29.2964 24.6638 36C24.6638 42.7036 27.3153 49.1326 32.0351 53.8727C36.7549 58.6128 43.1562 61.2758 49.831 61.2758Z" fill="#003D31"/>
<path d="M49.831 19.7513C45.4806 19.679 41.346 21.34 38.2541 24.4453C35.1262 27.5145 33.4364 31.6309 33.4364 36C33.4364 44.9549 40.6989 52.2487 49.6152 52.2487C50.0634 52.2487 50.4932 52.07 50.8101 51.7517C51.127 51.4334 51.305 51.0018 51.305 50.5517C51.305 50.1016 51.127 49.6699 50.8101 49.3516C50.4932 49.0334 50.0634 48.8546 49.6152 48.8546C42.5684 48.8546 36.816 43.0772 36.816 36C36.816 32.5336 38.1822 29.2839 40.627 26.8646C43.0718 24.4453 46.3435 23.1454 49.795 23.1454C56.734 23.2538 62.4145 29.1033 62.4145 36.2166V39.1414C62.4145 39.7831 62.1608 40.3984 61.709 40.8521C61.2573 41.3058 60.6446 41.5607 60.0057 41.5607C59.3668 41.5607 58.7541 41.3058 58.3024 40.8521C57.8506 40.3984 57.5968 39.7831 57.5968 39.1414V28.0201C57.5968 27.57 57.4188 27.1383 57.1019 26.82C56.785 26.5018 56.3552 26.323 55.907 26.323C54.9723 26.323 54.1453 27.0812 54.1453 28.0201V28.345C52.5634 27.0812 50.586 26.2869 48.3928 26.2869C43.3594 26.2869 39.2608 30.4032 39.2608 35.4584C39.2608 40.5135 43.3594 44.6299 48.3928 44.6299C50.9096 44.6299 53.2106 43.5827 54.8644 41.9218C55.8711 43.7272 57.7766 44.9549 59.9697 44.9549C63.1696 44.9549 65.7941 42.319 65.7941 39.1053V36.1805C65.7941 27.2618 58.6395 19.8596 49.831 19.7513ZM48.4288 41.2718C45.2649 41.2718 42.6763 38.672 42.6763 35.4945C42.6763 32.3169 45.2649 29.7172 48.4288 29.7172C51.5927 29.7172 54.1813 32.3169 54.1813 35.4945C54.1813 38.672 51.5927 41.2718 48.4288 41.2718Z" fill="#E6E0ED"/>
<defs>
<linearGradient id="paint0_linear_651_3115" x1="7.19088" y1="40.1745" x2="99.9964" y2="39.5051" gradientUnits="userSpaceOnUse">
<stop stop-color="#DFD0E6"/>
<stop offset="1" stop-color="#EEE5F8"/>
</linearGradient>
<linearGradient id="paint1_linear_651_3115" x1="0" y1="39.9543" x2="10.9229" y2="39.9543" gradientUnits="userSpaceOnUse">
<stop stop-color="#D6BABD"/>
<stop offset="1" stop-color="#DCC9DD" stop-opacity="0"/>
</linearGradient>
<linearGradient id="paint2_linear_651_3115" x1="62.8721" y1="46.735" x2="61.1048" y2="41.2523" gradientUnits="userSpaceOnUse">
<stop offset="0.114" stop-color="#DAC3DF"/>
<stop offset="1" stop-color="#DAC3DF" stop-opacity="0"/>
</linearGradient>
<radialGradient id="paint3_radial_651_3115" cx="0" cy="0" r="1" gradientUnits="userSpaceOnUse" gradientTransform="translate(72.1185 26.5399) rotate(143.013) scale(13.6092 99.519)">
<stop offset="0.342" stop-color="#003D31"/>
<stop offset="1" stop-color="#003D31" stop-opacity="0"/>
</radialGradient>
<linearGradient id="paint4_linear_651_3115" x1="36.6317" y1="47.8471" x2="38.4584" y2="41.2943" gradientUnits="userSpaceOnUse">
<stop offset="0.114" stop-color="#F6EFFE"/>
<stop offset="1" stop-color="#F3EAFD" stop-opacity="0"/>
</linearGradient>
<linearGradient id="paint5_linear_651_3115" x1="29.8864" y1="28.5545" x2="32.5068" y2="35.6092" gradientUnits="userSpaceOnUse">
<stop stop-color="#E3CDF7"/>
<stop offset="1" stop-color="#E9D9F8" stop-opacity="0"/>
</linearGradient>
<linearGradient id="paint6_linear_651_3115" x1="101.352" y1="48.8654" x2="74.6081" y2="48.8654" gradientUnits="userSpaceOnUse">
<stop stop-color="#F7F3FB"/>
<stop offset="1" stop-color="#F0E9F8" stop-opacity="0"/>
</linearGradient>
<linearGradient id="paint7_linear_651_3115" x1="101.352" y1="48.8654" x2="92.5356" y2="48.8654" gradientUnits="userSpaceOnUse">
<stop offset="0.199" stop-color="#EBE9ED"/>
<stop offset="1" stop-color="#EBE9ED" stop-opacity="0"/>
</linearGradient>
<linearGradient id="paint8_linear_651_3115" x1="50" y1="83.6809" x2="50" y2="11.5061" gradientUnits="userSpaceOnUse">
<stop stop-color="#DDC5F1"/>
<stop offset="1" stop-color="#E6DAF1"/>
</linearGradient>
<linearGradient id="paint9_linear_651_3115" x1="19.3895" y1="32.8655" x2="22.6161" y2="35.4763" gradientUnits="userSpaceOnUse">
<stop offset="0.073" stop-color="#DDC2C8"/>
<stop offset="1" stop-color="#DFCDDA" stop-opacity="0"/>
</linearGradient>
<linearGradient id="paint10_linear_651_3115" x1="73.6607" y1="26.5444" x2="71.586" y2="28.285" gradientUnits="userSpaceOnUse">
<stop offset="0.14" stop-color="#F8F3FD"/>
<stop offset="1" stop-color="#F1EAF9" stop-opacity="0"/>
</linearGradient>
<linearGradient id="paint11_linear_651_3115" x1="50" y1="0" x2="50" y2="72.008" gradientUnits="userSpaceOnUse">
<stop stop-color="#E9E4E9"/>
<stop offset="1" stop-color="#E7DCF0"/>
</linearGradient>
<linearGradient id="paint12_linear_651_3115" x1="27.745" y1="45.7025" x2="56.0934" y2="18.3028" gradientUnits="userSpaceOnUse">
<stop stop-color="#E1D5E7"/>
<stop offset="1" stop-color="#E1D5E7" stop-opacity="0"/>
</linearGradient>
<linearGradient id="paint13_linear_651_3115" x1="0.00359531" y1="10.9334" x2="10.545" y2="10.9334" gradientUnits="userSpaceOnUse">
<stop stop-color="#E1C1BC"/>
<stop offset="1" stop-color="#E9D1CD" stop-opacity="0"/>
</linearGradient>
<radialGradient id="paint14_radial_651_3115" cx="0" cy="0" r="1" gradientUnits="userSpaceOnUse" gradientTransform="translate(91.1923 27.2522) rotate(-121.096) scale(31.8233 125.522)">
<stop stop-color="#FBF9FE"/>
<stop offset="1" stop-color="#F0ECF1" stop-opacity="0"/>
</radialGradient>
</defs>
</svg>
