<svg width="16" height="17" viewBox="0 0 16 17" fill="none" xmlns="http://www.w3.org/2000/svg">
<path d="M15.1768 8.32326L13.1997 6.34621V3.55031C13.1997 3.484 13.1734 3.42042 13.1265 3.37353C13.0796 3.32665 13.016 3.30031 12.9497 3.30031H10.1538L8.17676 1.32326C8.15355 1.30003 8.126 1.28161 8.09567 1.26904C8.06535 1.25647 8.03284 1.25 8.00001 1.25C7.96718 1.25 7.93467 1.25647 7.90434 1.26904C7.87402 1.28161 7.84646 1.30003 7.82326 1.32326L5.84621 3.30031H3.05031C2.984 3.30031 2.92042 3.32665 2.87353 3.37353C2.82665 3.42042 2.80031 3.484 2.80031 3.55031V6.34621L0.823259 8.32326C0.800034 8.34646 0.78161 8.37402 0.76904 8.40434C0.75647 8.43467 0.75 8.46718 0.75 8.50001C0.75 8.53284 0.75647 8.56535 0.76904 8.59567C0.78161 8.626 0.800034 8.65355 0.823259 8.67676L2.80031 10.6538V13.4497C2.80031 13.516 2.82665 13.5796 2.87353 13.6265C2.92042 13.6734 2.984 13.6997 3.05031 13.6997H5.84621L7.82326 15.6768C7.84646 15.7 7.87402 15.7184 7.90435 15.731C7.93467 15.7435 7.96718 15.75 8.00001 15.75C8.03284 15.75 8.06534 15.7435 8.09567 15.731C8.126 15.7184 8.15355 15.7 8.17676 15.6768L10.1538 13.6997H12.9497C13.016 13.6997 13.0796 13.6734 13.1265 13.6265C13.1734 13.5796 13.1997 13.516 13.1997 13.4497V10.6538L15.1768 8.67676C15.2 8.65355 15.2184 8.626 15.231 8.59567C15.2435 8.56535 15.25 8.53284 15.25 8.50001C15.25 8.46718 15.2435 8.43467 15.231 8.40434C15.2184 8.37402 15.2 8.34646 15.1768 8.32326Z" fill="url(#paint0_linear_1280_10671)"/>
<path d="M8 14.3356C7.96717 14.3356 7.93465 14.3292 7.90432 14.3166C7.87398 14.304 7.84644 14.2856 7.82325 14.2623L6.26038 12.6995H4.05038C3.98407 12.6995 3.92049 12.6731 3.8736 12.6262C3.82672 12.5794 3.80038 12.5158 3.80038 12.4495V10.2395L2.2375 8.67651C2.19064 8.62963 2.16431 8.56605 2.16431 8.49976C2.16431 8.43347 2.19064 8.36989 2.2375 8.32301L3.80038 6.76013V4.55013C3.80038 4.48383 3.82672 4.42024 3.8736 4.37336C3.92049 4.32647 3.98407 4.30013 4.05038 4.30013H6.26038L7.82325 2.73726C7.87014 2.69039 7.93371 2.66406 8 2.66406C8.06629 2.66406 8.12987 2.69039 8.17675 2.73726L9.73963 4.30013H11.9496C12.0159 4.30013 12.0795 4.32647 12.1264 4.37336C12.1733 4.42024 12.1996 4.48383 12.1996 4.55013V6.76013L13.7625 8.32301C13.8094 8.36989 13.8357 8.43347 13.8357 8.49976C13.8357 8.56605 13.8094 8.62963 13.7625 8.67651L12.1996 10.2394V12.4494C12.1996 12.5157 12.1733 12.5793 12.1264 12.6262C12.0795 12.673 12.0159 12.6994 11.9496 12.6994H9.73963L8.17675 14.2623C8.15358 14.2855 8.12603 14.304 8.0957 14.3166C8.06536 14.3291 8.03284 14.3356 8 14.3356ZM4.3003 12.1995H6.3639C6.4302 12.1995 6.49378 12.2258 6.54065 12.2727L8 13.7321L9.45935 12.2727C9.50623 12.2258 9.5698 12.1995 9.6361 12.1995H11.6997V10.1359C11.6997 10.0696 11.7261 10.006 11.773 9.95911L13.2323 8.49976L11.773 7.04041C11.7261 6.99354 11.6997 6.92996 11.6997 6.86366V4.80006H9.6361C9.5698 4.80005 9.50623 4.7737 9.45935 4.72681L8 3.26746L6.54065 4.72681C6.49378 4.7737 6.4302 4.80005 6.3639 4.80006H4.3003V6.86366C4.30029 6.92996 4.27394 6.99354 4.22705 7.04041L2.7677 8.49976L4.22705 9.95911C4.27394 10.006 4.30029 10.0696 4.3003 10.1359V12.1995Z" fill="url(#paint1_linear_1280_10671)"/>
<path d="M11.4575 9.3606L10.933 8.5797C10.7727 8.32858 10.5424 8.12996 10.2705 8.00842C9.99852 7.88687 9.69691 7.84774 9.40295 7.89587C9.1711 7.9398 8.95236 8.03612 8.76342 8.1775L8.6 8.3L8.9 8.7L9.06345 8.5775C9.17446 8.49209 9.30234 8.43123 9.43864 8.39896C9.57494 8.36669 9.71653 8.36374 9.85405 8.39031C9.99158 8.41687 10.1219 8.47235 10.2364 8.55306C10.3508 8.63378 10.4468 8.73789 10.5181 8.8585L10.7809 9.25H8.25V6H7.75V8.44093L6.97363 6.88818L6.52637 7.11182L7.745 9.54915C7.7327 9.80499 7.62258 10.0463 7.4374 10.2233C7.25222 10.4003 7.00614 10.4993 6.75 10.5H6V11H6.75C7.10416 10.9994 7.4467 10.8736 7.71708 10.6449C7.98745 10.4161 8.16825 10.0992 8.2275 9.75H11.25C11.2953 9.74999 11.3398 9.73767 11.3786 9.71434C11.4175 9.69102 11.4493 9.65757 11.4706 9.61757C11.4919 9.57757 11.502 9.53253 11.4996 9.48727C11.4973 9.44201 11.4828 9.39822 11.4575 9.3606Z" fill="url(#paint2_linear_1280_10671)"/>
<path d="M6.25 6H5.75V8.75C5.7497 9.01513 5.64425 9.26931 5.45678 9.45678C5.26931 9.64425 5.01513 9.7497 4.75 9.75V10.25C5.14769 10.2496 5.52897 10.0914 5.81018 9.81018C6.09139 9.52897 6.24956 9.14769 6.25 8.75V6Z" fill="url(#paint3_linear_1280_10671)"/>
<defs>
<linearGradient id="paint0_linear_1280_10671" x1="8.00001" y1="15.75" x2="8.00001" y2="1.25001" gradientUnits="userSpaceOnUse">
<stop stop-color="#00684E"/>
<stop offset="1" stop-color="#009C6B"/>
</linearGradient>
<linearGradient id="paint1_linear_1280_10671" x1="8" y1="2.66401" x2="8" y2="14.3355" gradientUnits="userSpaceOnUse">
<stop stop-color="#FFC033"/>
<stop offset="1" stop-color="#EF8E2E"/>
</linearGradient>
<linearGradient id="paint2_linear_1280_10671" x1="8.75" y1="6" x2="8.75" y2="11" gradientUnits="userSpaceOnUse">
<stop stop-color="#FFC033"/>
<stop offset="1" stop-color="#EF8E2E"/>
</linearGradient>
<linearGradient id="paint3_linear_1280_10671" x1="5.5" y1="6" x2="5.5" y2="10.25" gradientUnits="userSpaceOnUse">
<stop stop-color="#FFC033"/>
<stop offset="1" stop-color="#EF8E2E"/>
</linearGradient>
</defs>
</svg>
