<svg width="14" height="14" viewBox="0 0 14 14" fill="none" xmlns="http://www.w3.org/2000/svg">
<path d="M6.75 7C8.54493 7 10 5.54493 10 3.75C10 1.95507 8.54493 0.5 6.75 0.5C4.95507 0.5 3.5 1.95507 3.5 3.75C3.5 5.54493 4.95507 7 6.75 7Z" fill="url(#paint0_linear_1280_10647)"/>
<path d="M13.875 10H13.625C13.6582 10 13.6899 9.98683 13.7134 9.96339C13.7368 9.93995 13.75 9.90815 13.75 9.875V9.125C13.75 9.09185 13.7368 9.06005 13.7134 9.03661C13.6899 9.01317 13.6582 9 13.625 9H13.375C13.4082 9 13.4399 8.98683 13.4634 8.96339C13.4868 8.93995 13.5 8.90815 13.5 8.875V8.125C13.5 8.09185 13.4868 8.06005 13.4634 8.03661C13.4399 8.01317 13.4082 8 13.375 8H11.375C11.3418 8 11.3101 8.01317 11.2866 8.03661C11.2632 8.06005 11.25 8.09185 11.25 8.125V8.875C11.25 8.90815 11.2632 8.93995 11.2866 8.96339C11.3101 8.98683 11.3418 9 11.375 9H11.625C11.5918 9 11.5601 9.01317 11.5366 9.03661C11.5132 9.06005 11.5 9.09185 11.5 9.125V9.875C11.5 9.90815 11.5132 9.93995 11.5366 9.96339C11.5601 9.98683 11.5918 10 11.625 10H11.875C11.8418 10 11.8101 10.0132 11.7866 10.0366C11.7632 10.0601 11.75 10.0918 11.75 10.125V10.875C11.75 10.9082 11.7632 10.9399 11.7866 10.9634C11.8101 10.9868 11.8418 11 11.875 11H11.125C11.0918 11 11.0601 11.0132 11.0366 11.0366C11.0132 11.0601 11 11.0918 11 11.125V11.875C11 11.9082 11.0132 11.9399 11.0366 11.9634C11.0601 11.9868 11.0918 12 11.125 12H11.625C11.5918 12 11.5601 12.0132 11.5366 12.0366C11.5132 12.0601 11.5 12.0918 11.5 12.125V12.875C11.5 12.9082 11.5132 12.9399 11.5366 12.9634C11.5601 12.9868 11.5918 13 11.625 13H11.375C11.3418 13 11.3101 13.0132 11.2866 13.0366C11.2632 13.0601 11.25 13.0918 11.25 13.125V13.875C11.25 13.9082 11.2632 13.9399 11.2866 13.9634C11.3101 13.9868 11.3418 14 11.375 14H13.375C13.4082 14 13.4399 13.9868 13.4634 13.9634C13.4868 13.9399 13.5 13.9082 13.5 13.875V13.125C13.5 13.0918 13.4868 13.0601 13.4634 13.0366C13.4399 13.0132 13.4082 13 13.375 13H13.625C13.6582 13 13.6899 12.9868 13.7134 12.9634C13.7368 12.9399 13.75 12.9082 13.75 12.875V12.125C13.75 12.0918 13.7368 12.0601 13.7134 12.0366C13.6899 12.0132 13.6582 12 13.625 12H13.125C13.1582 12 13.1899 11.9868 13.2134 11.9634C13.2368 11.9399 13.25 11.9082 13.25 11.875V11.125C13.25 11.0918 13.2368 11.0601 13.2134 11.0366C13.1899 11.0132 13.1582 11 13.125 11H13.875C13.9082 11 13.9399 10.9868 13.9634 10.9634C13.9868 10.9399 14 10.9082 14 10.875V10.125C14 10.0918 13.9868 10.0601 13.9634 10.0366C13.9399 10.0132 13.9082 10 13.875 10Z" fill="url(#paint1_linear_1280_10647)"/>
<path d="M10.125 12H9.625C9.65815 12 9.68995 11.9868 9.71339 11.9634C9.73683 11.9399 9.75 11.9082 9.75 11.875V11.125C9.75 11.0918 9.73683 11.0601 9.71339 11.0366C9.68995 11.0132 9.65815 11 9.625 11H9.875C9.90815 11 9.93995 10.9868 9.96339 10.9634C9.98683 10.9399 10 10.9082 10 10.875V10.125C10 10.0918 9.98683 10.0601 9.96339 10.0366C9.93995 10.0132 9.90815 10 9.875 10H7.875C7.84185 10 7.81005 10.0132 7.78661 10.0366C7.76317 10.0601 7.75 10.0918 7.75 10.125V10.875C7.75 10.9082 7.76317 10.9399 7.78661 10.9634C7.81005 10.9868 7.84185 11 7.875 11H7.625C7.59185 11 7.56005 11.0132 7.53661 11.0366C7.51317 11.0601 7.5 11.0918 7.5 11.125V11.875C7.5 11.9082 7.51317 11.9399 7.53661 11.9634C7.56005 11.9868 7.59185 12 7.625 12H8.125C8.09185 12 8.06005 12.0132 8.03661 12.0366C8.01317 12.0601 8 12.0918 8 12.125V12.875C8 12.9082 8.01317 12.9399 8.03661 12.9634C8.06005 12.9868 8.09185 13 8.125 13H7.875C7.84185 13 7.81005 13.0132 7.78661 13.0366C7.76317 13.0601 7.75 13.0918 7.75 13.125V13.875C7.75 13.9082 7.76317 13.9399 7.78661 13.9634C7.81005 13.9868 7.84185 14 7.875 14H9.875C9.90815 14 9.93995 13.9868 9.96339 13.9634C9.98683 13.9399 10 13.9082 10 13.875V13.125C10 13.0918 9.98683 13.0601 9.96339 13.0366C9.93995 13.0132 9.90815 13 9.875 13H10.125C10.1582 13 10.1899 12.9868 10.2134 12.9634C10.2368 12.9399 10.25 12.9082 10.25 12.875V12.125C10.25 12.0918 10.2368 12.0601 10.2134 12.0366C10.1899 12.0132 10.1582 12 10.125 12Z" fill="url(#paint2_linear_1280_10647)"/>
<path d="M6.625 13H6.375C6.40815 13 6.43995 12.9868 6.46339 12.9634C6.48683 12.9399 6.5 12.9082 6.5 12.875V12.125C6.5 12.0918 6.48683 12.0601 6.46339 12.0366C6.43995 12.0132 6.40815 12 6.375 12H5.875C5.90815 12 5.93995 11.9868 5.96339 11.9634C5.98683 11.9399 6 11.9082 6 11.875V11.125C6 11.0918 5.98683 11.0601 5.96339 11.0366C5.93995 11.0132 5.90815 11 5.875 11H3.875C3.84185 11 3.81005 11.0132 3.78661 11.0366C3.76317 11.0601 3.75 11.0918 3.75 11.125V11.875C3.75 11.9082 3.76317 11.9399 3.78661 11.9634C3.81005 11.9868 3.84185 12 3.875 12H4.375C4.34185 12 4.31005 12.0132 4.28661 12.0366C4.26317 12.0601 4.25 12.0918 4.25 12.125V12.875C4.25 12.9082 4.26317 12.9399 4.28661 12.9634C4.31005 12.9868 4.34185 13 4.375 13H4.625C4.59185 13 4.56005 13.0132 4.53661 13.0366C4.51317 13.0601 4.5 13.0918 4.5 13.125V13.875C4.5 13.9082 4.51317 13.9399 4.53661 13.9634C4.56005 13.9868 4.59185 14 4.625 14H6.625C6.65815 14 6.68995 13.9868 6.71339 13.9634C6.73683 13.9399 6.75 13.9082 6.75 13.875V13.125C6.75 13.0918 6.73683 13.0601 6.71339 13.0366C6.68995 13.0132 6.65815 13 6.625 13Z" fill="url(#paint3_linear_1280_10647)"/>
<path d="M2.875 13H2.125C2.15815 13 2.18995 12.9868 2.21339 12.9634C2.23683 12.9399 2.25 12.9082 2.25 12.875V12.125C2.25 12.0918 2.23683 12.0601 2.21339 12.0366C2.18995 12.0132 2.15815 12 2.125 12H0.125C0.0918479 12 0.0600537 12.0132 0.0366117 12.0366C0.0131696 12.0601 0 12.0918 0 12.125V12.875C0 12.9082 0.0131696 12.9399 0.0366117 12.9634C0.0600537 12.9868 0.0918479 13 0.125 13H0.875C0.841848 13 0.810054 13.0132 0.786612 13.0366C0.76317 13.0601 0.75 13.0918 0.75 13.125V13.875C0.75 13.9082 0.76317 13.9399 0.786612 13.9634C0.810054 13.9868 0.841848 14 0.875 14H2.875C2.90815 14 2.93995 13.9868 2.96339 13.9634C2.98683 13.9399 3 13.9082 3 13.875V13.125C3 13.0918 2.98683 13.0601 2.96339 13.0366C2.93995 13.0132 2.90815 13 2.875 13Z" fill="url(#paint4_linear_1280_10647)"/>
<path d="M2.875 13H0.875C0.805964 13 0.75 13.056 0.75 13.125V13.875C0.75 13.944 0.805964 14 0.875 14H2.875C2.94404 14 3 13.944 3 13.875V13.125C3 13.056 2.94404 13 2.875 13Z" fill="url(#paint5_linear_1280_10647)"/>
<path d="M6.625 13H4.625C4.55596 13 4.5 13.056 4.5 13.125V13.875C4.5 13.944 4.55596 14 4.625 14H6.625C6.69404 14 6.75 13.944 6.75 13.875V13.125C6.75 13.056 6.69404 13 6.625 13Z" fill="url(#paint6_linear_1280_10647)"/>
<path d="M9.875 13H7.875C7.80596 13 7.75 13.056 7.75 13.125V13.875C7.75 13.944 7.80596 14 7.875 14H9.875C9.94404 14 10 13.944 10 13.875V13.125C10 13.056 9.94404 13 9.875 13Z" fill="url(#paint7_linear_1280_10647)"/>
<path d="M13.375 13H11.375C11.306 13 11.25 13.056 11.25 13.125V13.875C11.25 13.944 11.306 14 11.375 14H13.375C13.444 14 13.5 13.944 13.5 13.875V13.125C13.5 13.056 13.444 13 13.375 13Z" fill="url(#paint8_linear_1280_10647)"/>
<path d="M2.125 12H0.125C0.0559644 12 0 12.056 0 12.125V12.875C0 12.944 0.0559644 13 0.125 13H2.125C2.19404 13 2.25 12.944 2.25 12.875V12.125C2.25 12.056 2.19404 12 2.125 12Z" fill="url(#paint9_linear_1280_10647)"/>
<path d="M6.375 12H4.375C4.30596 12 4.25 12.056 4.25 12.125V12.875C4.25 12.944 4.30596 13 4.375 13H6.375C6.44404 13 6.5 12.944 6.5 12.875V12.125C6.5 12.056 6.44404 12 6.375 12Z" fill="url(#paint10_linear_1280_10647)"/>
<path d="M10.125 12H8.125C8.05596 12 8 12.056 8 12.125V12.875C8 12.944 8.05596 13 8.125 13H10.125C10.194 13 10.25 12.944 10.25 12.875V12.125C10.25 12.056 10.194 12 10.125 12Z" fill="url(#paint11_linear_1280_10647)"/>
<path d="M13.625 12H11.625C11.556 12 11.5 12.056 11.5 12.125V12.875C11.5 12.944 11.556 13 11.625 13H13.625C13.694 13 13.75 12.944 13.75 12.875V12.125C13.75 12.056 13.694 12 13.625 12Z" fill="url(#paint12_linear_1280_10647)"/>
<path d="M5.875 11H3.875C3.80596 11 3.75 11.056 3.75 11.125V11.875C3.75 11.944 3.80596 12 3.875 12H5.875C5.94404 12 6 11.944 6 11.875V11.125C6 11.056 5.94404 11 5.875 11Z" fill="url(#paint13_linear_1280_10647)"/>
<path d="M9.625 11H7.625C7.55596 11 7.5 11.056 7.5 11.125V11.875C7.5 11.944 7.55596 12 7.625 12H9.625C9.69404 12 9.75 11.944 9.75 11.875V11.125C9.75 11.056 9.69404 11 9.625 11Z" fill="url(#paint14_linear_1280_10647)"/>
<path d="M13.125 11H11.125C11.056 11 11 11.056 11 11.125V11.875C11 11.944 11.056 12 11.125 12H13.125C13.194 12 13.25 11.944 13.25 11.875V11.125C13.25 11.056 13.194 11 13.125 11Z" fill="url(#paint15_linear_1280_10647)"/>
<path d="M9.875 10H7.875C7.80596 10 7.75 10.056 7.75 10.125V10.875C7.75 10.944 7.80596 11 7.875 11H9.875C9.94404 11 10 10.944 10 10.875V10.125C10 10.056 9.94404 10 9.875 10Z" fill="url(#paint16_linear_1280_10647)"/>
<path d="M13.875 10H11.875C11.806 10 11.75 10.056 11.75 10.125V10.875C11.75 10.944 11.806 11 11.875 11H13.875C13.944 11 14 10.944 14 10.875V10.125C14 10.056 13.944 10 13.875 10Z" fill="url(#paint17_linear_1280_10647)"/>
<path d="M13.625 9H11.625C11.556 9 11.5 9.05596 11.5 9.125V9.875C11.5 9.94404 11.556 10 11.625 10H13.625C13.694 10 13.75 9.94404 13.75 9.875V9.125C13.75 9.05596 13.694 9 13.625 9Z" fill="url(#paint18_linear_1280_10647)"/>
<path d="M13.375 8H11.375C11.306 8 11.25 8.05596 11.25 8.125V8.875C11.25 8.94404 11.306 9 11.375 9H13.375C13.444 9 13.5 8.94404 13.5 8.875V8.125C13.5 8.05596 13.444 8 13.375 8Z" fill="url(#paint19_linear_1280_10647)"/>
<path d="M12.71 4.50002L11.46 4.71002C11.4148 4.71741 11.3724 4.73712 11.3376 4.767C11.3027 4.79687 11.2768 4.83575 11.2626 4.87938C11.2484 4.92302 11.2465 4.96971 11.2571 5.01436C11.2676 5.05901 11.2903 5.09989 11.3225 5.13252L11.69 5.50002L8.90255 8.50002L4.78005 8.00002C4.72124 7.99309 4.66188 8.00727 4.61255 8.04002L0.862549 10.54L1.13755 10.955L4.81255 8.50002L8.97005 9.00002C9.00907 9.00471 9.04864 9.00014 9.08556 8.98667C9.12249 8.97321 9.15571 8.95123 9.18255 8.92252L12.0425 5.85502L12.365 6.17752C12.3977 6.20978 12.4386 6.23243 12.4832 6.24301C12.5279 6.25358 12.5746 6.25166 12.6182 6.23746C12.6618 6.22326 12.7007 6.19733 12.7306 6.1625C12.7604 6.12768 12.7802 6.0853 12.7875 6.04002L12.9975 4.79002C13.0045 4.75061 13.0019 4.71012 12.9899 4.67193C12.978 4.63375 12.9571 4.59899 12.9289 4.57057C12.9007 4.54216 12.8661 4.52092 12.8281 4.50864C12.79 4.49637 12.7495 4.49341 12.71 4.50002Z" fill="url(#paint20_linear_1280_10647)"/>
<path d="M7.07249 3.50008H6.99999V2.50008H7.07249C7.2051 2.50008 7.33228 2.55276 7.42604 2.64652C7.51981 2.74029 7.57249 2.86747 7.57249 3.00008H8.07249C8.07249 2.73486 7.96713 2.48051 7.7796 2.29297C7.59206 2.10543 7.33771 2.00008 7.07249 2.00008H6.99999V1.39258H6.49999V2.00008H6.42749C6.16227 2.00008 5.90792 2.10543 5.72038 2.29297C5.53285 2.48051 5.42749 2.73486 5.42749 3.00008C5.42749 3.26529 5.53285 3.51965 5.72038 3.70718C5.90792 3.89472 6.16227 4.00008 6.42749 4.00008H6.49999V5.00008H6.42749C6.29488 5.00008 6.16771 4.9474 6.07394 4.85363C5.98017 4.75986 5.92749 4.63269 5.92749 4.50008H5.42749C5.42749 4.76529 5.53285 5.01965 5.72038 5.20718C5.90792 5.39472 6.16227 5.50008 6.42749 5.50008H6.49999V6.10758H6.99999V5.50008H7.07249C7.33771 5.50008 7.59206 5.39472 7.7796 5.20718C7.96713 5.01965 8.07249 4.76529 8.07249 4.50008C8.07249 4.23486 7.96713 3.98051 7.7796 3.79297C7.59206 3.60544 7.33771 3.50008 7.07249 3.50008ZM6.42749 3.50008C6.29488 3.50008 6.16771 3.4474 6.07394 3.35363C5.98017 3.25986 5.92749 3.13269 5.92749 3.00008C5.92749 2.86747 5.98017 2.74029 6.07394 2.64652C6.16771 2.55276 6.29488 2.50008 6.42749 2.50008H6.49999V3.50008H6.42749ZM7.07249 5.00008H6.99999V4.00008H7.07249C7.2051 4.00008 7.33228 4.05276 7.42604 4.14652C7.51981 4.24029 7.57249 4.36747 7.57249 4.50008C7.57249 4.63269 7.51981 4.75986 7.42604 4.85363C7.33228 4.9474 7.2051 5.00008 7.07249 5.00008Z" fill="#B2500D"/>
<defs>
<linearGradient id="paint0_linear_1280_10647" x1="6.75" y1="0.5" x2="6.75" y2="7" gradientUnits="userSpaceOnUse">
<stop stop-color="#FFC033"/>
<stop offset="1" stop-color="#EF8E2E"/>
</linearGradient>
<linearGradient id="paint1_linear_1280_10647" x1="12.5" y1="8" x2="12.5" y2="14" gradientUnits="userSpaceOnUse">
<stop stop-color="#FFC033"/>
<stop offset="1" stop-color="#EF8E2E"/>
</linearGradient>
<linearGradient id="paint2_linear_1280_10647" x1="8.875" y1="10" x2="8.875" y2="14" gradientUnits="userSpaceOnUse">
<stop stop-color="#FFC033"/>
<stop offset="1" stop-color="#EF8E2E"/>
</linearGradient>
<linearGradient id="paint3_linear_1280_10647" x1="5.25" y1="11" x2="5.25" y2="14" gradientUnits="userSpaceOnUse">
<stop stop-color="#FFC033"/>
<stop offset="1" stop-color="#EF8E2E"/>
</linearGradient>
<linearGradient id="paint4_linear_1280_10647" x1="1.5" y1="12" x2="1.5" y2="14" gradientUnits="userSpaceOnUse">
<stop stop-color="#FFC033"/>
<stop offset="1" stop-color="#EF8E2E"/>
</linearGradient>
<linearGradient id="paint5_linear_1280_10647" x1="1.875" y1="13" x2="1.875" y2="14" gradientUnits="userSpaceOnUse">
<stop stop-color="#FFC033"/>
<stop offset="1" stop-color="#EF8E2E"/>
</linearGradient>
<linearGradient id="paint6_linear_1280_10647" x1="5.625" y1="13" x2="5.625" y2="14" gradientUnits="userSpaceOnUse">
<stop stop-color="#FFC033"/>
<stop offset="1" stop-color="#EF8E2E"/>
</linearGradient>
<linearGradient id="paint7_linear_1280_10647" x1="8.875" y1="13" x2="8.875" y2="14" gradientUnits="userSpaceOnUse">
<stop stop-color="#FFC033"/>
<stop offset="1" stop-color="#EF8E2E"/>
</linearGradient>
<linearGradient id="paint8_linear_1280_10647" x1="12.375" y1="13" x2="12.375" y2="14" gradientUnits="userSpaceOnUse">
<stop stop-color="#FFC033"/>
<stop offset="1" stop-color="#EF8E2E"/>
</linearGradient>
<linearGradient id="paint9_linear_1280_10647" x1="1.125" y1="12" x2="1.125" y2="13" gradientUnits="userSpaceOnUse">
<stop stop-color="#FFC033"/>
<stop offset="1" stop-color="#EF8E2E"/>
</linearGradient>
<linearGradient id="paint10_linear_1280_10647" x1="5.375" y1="12" x2="5.375" y2="13" gradientUnits="userSpaceOnUse">
<stop stop-color="#FFC033"/>
<stop offset="1" stop-color="#EF8E2E"/>
</linearGradient>
<linearGradient id="paint11_linear_1280_10647" x1="9.125" y1="12" x2="9.125" y2="13" gradientUnits="userSpaceOnUse">
<stop stop-color="#FFC033"/>
<stop offset="1" stop-color="#EF8E2E"/>
</linearGradient>
<linearGradient id="paint12_linear_1280_10647" x1="12.625" y1="12" x2="12.625" y2="13" gradientUnits="userSpaceOnUse">
<stop stop-color="#FFC033"/>
<stop offset="1" stop-color="#EF8E2E"/>
</linearGradient>
<linearGradient id="paint13_linear_1280_10647" x1="4.875" y1="11" x2="4.875" y2="12" gradientUnits="userSpaceOnUse">
<stop stop-color="#FFC033"/>
<stop offset="1" stop-color="#EF8E2E"/>
</linearGradient>
<linearGradient id="paint14_linear_1280_10647" x1="8.625" y1="11" x2="8.625" y2="12" gradientUnits="userSpaceOnUse">
<stop stop-color="#FFC033"/>
<stop offset="1" stop-color="#EF8E2E"/>
</linearGradient>
<linearGradient id="paint15_linear_1280_10647" x1="12.125" y1="11" x2="12.125" y2="12" gradientUnits="userSpaceOnUse">
<stop stop-color="#FFC033"/>
<stop offset="1" stop-color="#EF8E2E"/>
</linearGradient>
<linearGradient id="paint16_linear_1280_10647" x1="8.875" y1="10" x2="8.875" y2="11" gradientUnits="userSpaceOnUse">
<stop stop-color="#FFC033"/>
<stop offset="1" stop-color="#EF8E2E"/>
</linearGradient>
<linearGradient id="paint17_linear_1280_10647" x1="12.875" y1="10" x2="12.875" y2="11" gradientUnits="userSpaceOnUse">
<stop stop-color="#FFC033"/>
<stop offset="1" stop-color="#EF8E2E"/>
</linearGradient>
<linearGradient id="paint18_linear_1280_10647" x1="12.625" y1="9" x2="12.625" y2="10" gradientUnits="userSpaceOnUse">
<stop stop-color="#FFC033"/>
<stop offset="1" stop-color="#EF8E2E"/>
</linearGradient>
<linearGradient id="paint19_linear_1280_10647" x1="12.375" y1="8" x2="12.375" y2="9" gradientUnits="userSpaceOnUse">
<stop stop-color="#FFC033"/>
<stop offset="1" stop-color="#EF8E2E"/>
</linearGradient>
<linearGradient id="paint20_linear_1280_10647" x1="6.93005" y1="4.50002" x2="6.93005" y2="10.9575" gradientUnits="userSpaceOnUse">
<stop stop-color="#42BFFF"/>
<stop offset="1" stop-color="#1174AC"/>
</linearGradient>
</defs>
</svg>
