<svg width="16" height="17" viewBox="0 0 16 17" fill="none" xmlns="http://www.w3.org/2000/svg">
<path d="M8 9.75C10.3472 9.75 12.25 7.84721 12.25 5.5C12.25 3.15279 10.3472 1.25 8 1.25C5.65279 1.25 3.75 3.15279 3.75 5.5C3.75 7.84721 5.65279 9.75 8 9.75Z" fill="url(#paint0_linear_1280_10355)"/>
<path d="M8.32249 5.25008H8.24999V4.25008H8.32249C8.4551 4.25008 8.58228 4.30276 8.67604 4.39652C8.76981 4.49029 8.82249 4.61747 8.82249 4.75008H9.32249C9.32249 4.48486 9.21713 4.23051 9.0296 4.04297C8.84206 3.85544 8.58771 3.75008 8.32249 3.75008H8.24999V3.14258H7.74999V3.75008H7.67749C7.41227 3.75008 7.15792 3.85544 6.97038 4.04297C6.78285 4.23051 6.67749 4.48486 6.67749 4.75008C6.67749 5.01529 6.78285 5.26965 6.97038 5.45718C7.15792 5.64472 7.41227 5.75008 7.67749 5.75008H7.74999V6.75008H7.67749C7.54488 6.75008 7.41771 6.6974 7.32394 6.60363C7.23017 6.50986 7.17749 6.38269 7.17749 6.25008H6.67749C6.67749 6.51529 6.78285 6.76965 6.97038 6.95718C7.15792 7.14472 7.41227 7.25008 7.67749 7.25008H7.74999V7.85758H8.24999V7.25008H8.32249C8.58771 7.25008 8.84206 7.14472 9.0296 6.95718C9.21713 6.76965 9.32249 6.51529 9.32249 6.25008C9.32249 5.98486 9.21713 5.73051 9.0296 5.54297C8.84206 5.35544 8.58771 5.25008 8.32249 5.25008ZM7.67749 5.25008C7.54488 5.25008 7.41771 5.1974 7.32394 5.10363C7.23017 5.00986 7.17749 4.88269 7.17749 4.75008C7.17749 4.61747 7.23017 4.49029 7.32394 4.39652C7.41771 4.30276 7.54488 4.25008 7.67749 4.25008H7.74999V5.25008H7.67749ZM8.32249 6.75008H8.24999V5.75008H8.32249C8.4551 5.75008 8.58228 5.80276 8.67604 5.89652C8.76981 5.99029 8.82249 6.11747 8.82249 6.25008C8.82249 6.38269 8.76981 6.50986 8.67604 6.60363C8.58228 6.6974 8.4551 6.75008 8.32249 6.75008Z" fill="#B2500D"/>
<path d="M8 8.75C7.35721 8.75 6.72886 8.55939 6.1944 8.20228C5.65994 7.84516 5.24338 7.33758 4.99739 6.74372C4.75141 6.14986 4.68705 5.4964 4.81245 4.86596C4.93785 4.23552 5.24738 3.65642 5.7019 3.2019C6.15642 2.74738 6.73552 2.43785 7.36596 2.31245C7.9964 2.18705 8.64986 2.25141 9.24372 2.49739C9.83758 2.74338 10.3452 3.15994 10.7023 3.6944C11.0594 4.22886 11.25 4.85721 11.25 5.5C11.25 5.9268 11.1659 6.34941 11.0026 6.74372C10.8393 7.13803 10.5999 7.49631 10.2981 7.7981C9.99631 8.09989 9.63803 8.33928 9.24372 8.50261C8.84941 8.66594 8.4268 8.75 8 8.75ZM8 2.75C7.4561 2.75 6.92442 2.91129 6.47218 3.21346C6.01995 3.51563 5.66747 3.94513 5.45933 4.44762C5.25119 4.95012 5.19673 5.50305 5.30284 6.0365C5.40895 6.56995 5.67086 7.05995 6.05546 7.44455C6.44005 7.82914 6.93005 8.09105 7.4635 8.19716C7.99695 8.30327 8.54988 8.24881 9.05238 8.04067C9.55488 7.83253 9.98437 7.48005 10.2865 7.02782C10.5887 6.57558 10.75 6.0439 10.75 5.5C10.75 4.77066 10.4603 4.07118 9.94455 3.55546C9.42882 3.03973 8.72935 2.75 8 2.75Z" fill="#B2500D"/>
<path d="M13 11.5H5C4.86193 11.5 4.75 11.6119 4.75 11.75V13.25C4.75 13.3881 4.86193 13.5 5 13.5H13C13.1381 13.5 13.25 13.3881 13.25 13.25V11.75C13.25 11.6119 13.1381 11.5 13 11.5Z" fill="url(#paint1_linear_1280_10355)"/>
<path d="M11.25 9.5H3.25C3.11193 9.5 3 9.61193 3 9.75V11.25C3 11.3881 3.11193 11.5 3.25 11.5H11.25C11.3881 11.5 11.5 11.3881 11.5 11.25V9.75C11.5 9.61193 11.3881 9.5 11.25 9.5Z" fill="url(#paint2_linear_1280_10355)"/>
<path d="M11.5 13.5H3.5C3.36193 13.5 3.25 13.6119 3.25 13.75V15.25C3.25 15.3881 3.36193 15.5 3.5 15.5H11.5C11.6381 15.5 11.75 15.3881 11.75 15.25V13.75C11.75 13.6119 11.6381 13.5 11.5 13.5Z" fill="url(#paint3_linear_1280_10355)"/>
<path d="M3.25 14.5V15.25C3.25 15.3163 3.27634 15.3799 3.32322 15.4268C3.37011 15.4737 3.4337 15.5 3.5 15.5H11.5C11.5663 15.5 11.6299 15.4737 11.6768 15.4268C11.7237 15.3799 11.75 15.3163 11.75 15.25V14.5H3.25Z" fill="#EF8C29"/>
<path d="M4.75 12.5V13.25C4.75 13.3163 4.77634 13.3799 4.82322 13.4268C4.87011 13.4737 4.9337 13.5 5 13.5H13C13.0663 13.5 13.1299 13.4737 13.1768 13.4268C13.2237 13.3799 13.25 13.3163 13.25 13.25V12.5H4.75Z" fill="#EF8C29"/>
<path d="M3 10.5V11.25C3 11.3163 3.02634 11.3799 3.07322 11.4268C3.12011 11.4737 3.1837 11.5 3.25 11.5H11.25C11.3163 11.5 11.3799 11.4737 11.4268 11.4268C11.4737 11.3799 11.5 11.3163 11.5 11.25V10.5H3Z" fill="#EF8C29"/>
<path d="M4.25 13.5H4.75V14.5H4.25V13.5Z" fill="#B2500D"/>
<path d="M6.25 13.5H6.75V14.5H6.25V13.5Z" fill="#B2500D"/>
<path d="M8.25 13.5H8.75V14.5H8.25V13.5Z" fill="#B2500D"/>
<path d="M10.25 13.5H10.75V14.5H10.25V13.5Z" fill="#B2500D"/>
<path d="M9.25 14.5H9.75V15.5H9.25V14.5Z" fill="#B2500D"/>
<path d="M7.25 14.5H7.75V15.5H7.25V14.5Z" fill="#B2500D"/>
<path d="M5.25 14.5H5.75V15.5H5.25V14.5Z" fill="#B2500D"/>
<path d="M5.75 11.5H6.25V12.5H5.75V11.5Z" fill="#B2500D"/>
<path d="M7.75 11.5H8.25V12.5H7.75V11.5Z" fill="#B2500D"/>
<path d="M9.75 11.5H10.25V12.5H9.75V11.5Z" fill="#B2500D"/>
<path d="M11.75 11.5H12.25V12.5H11.75V11.5Z" fill="#B2500D"/>
<path d="M10.75 12.5H11.25V13.5H10.75V12.5Z" fill="#B2500D"/>
<path d="M8.75 12.5H9.25V13.5H8.75V12.5Z" fill="#B2500D"/>
<path d="M6.75 12.5H7.25V13.5H6.75V12.5Z" fill="#B2500D"/>
<path d="M4 9.5H4.5V10.5H4V9.5Z" fill="#B2500D"/>
<path d="M6 9.5H6.5V10.5H6V9.5Z" fill="#B2500D"/>
<path d="M8 9.5H8.5V10.5H8V9.5Z" fill="#B2500D"/>
<path d="M10 9.5H10.5V10.5H10V9.5Z" fill="#B2500D"/>
<path d="M9 10.5H9.5V11.5H9V10.5Z" fill="#B2500D"/>
<path d="M7 10.5H7.5V11.5H7V10.5Z" fill="#B2500D"/>
<path d="M5 10.5H5.5V11.5H5V10.5Z" fill="#B2500D"/>
<defs>
<linearGradient id="paint0_linear_1280_10355" x1="8" y1="1.25" x2="8" y2="9.75" gradientUnits="userSpaceOnUse">
<stop stop-color="#FFC033"/>
<stop offset="1" stop-color="#EF8E2E"/>
</linearGradient>
<linearGradient id="paint1_linear_1280_10355" x1="9" y1="11.5" x2="9" y2="13.5" gradientUnits="userSpaceOnUse">
<stop stop-color="#FFC033"/>
<stop offset="1" stop-color="#EF8E2E"/>
</linearGradient>
<linearGradient id="paint2_linear_1280_10355" x1="7.25" y1="9.5" x2="7.25" y2="11.5" gradientUnits="userSpaceOnUse">
<stop stop-color="#FFC033"/>
<stop offset="1" stop-color="#EF8E2E"/>
</linearGradient>
<linearGradient id="paint3_linear_1280_10355" x1="7.5" y1="13.5" x2="7.5" y2="15.5" gradientUnits="userSpaceOnUse">
<stop stop-color="#FFC033"/>
<stop offset="1" stop-color="#EF8E2E"/>
</linearGradient>
</defs>
</svg>
