<svg width="16" height="17" viewBox="0 0 16 17" fill="none" xmlns="http://www.w3.org/2000/svg">
<path d="M12.5 8.75H8.25V7.25H7.75V8.75H3.5C3.4337 8.75 3.37011 8.77634 3.32322 8.82322C3.27634 8.87011 3.25 8.9337 3.25 9V10.5H3.75V9.25H7.75V10.25H8.25V9.25H12.25V10.5H12.75V9C12.75 8.9337 12.7237 8.87011 12.6768 8.82322C12.6299 8.77634 12.5663 8.75 12.5 8.75Z" fill="url(#paint0_linear_1280_10691)"/>
<path d="M12 1.25H4C3.30964 1.25 2.75 1.80964 2.75 2.5V6.5C2.75 7.19036 3.30964 7.75 4 7.75H12C12.6904 7.75 13.25 7.19036 13.25 6.5V2.5C13.25 1.80964 12.6904 1.25 12 1.25Z" fill="url(#paint1_linear_1280_10691)"/>
<path d="M8.32249 4.25008H8.24999V3.25008H8.32249C8.4551 3.25008 8.58228 3.30276 8.67604 3.39652C8.76981 3.49029 8.82249 3.61747 8.82249 3.75008H9.32249C9.32249 3.48486 9.21713 3.23051 9.0296 3.04297C8.84206 2.85543 8.58771 2.75008 8.32249 2.75008H8.24999V2.14258H7.74999V2.75008H7.67749C7.41227 2.75008 7.15792 2.85543 6.97038 3.04297C6.78285 3.23051 6.67749 3.48486 6.67749 3.75008C6.67749 4.01529 6.78285 4.26965 6.97038 4.45718C7.15792 4.64472 7.41227 4.75008 7.67749 4.75008H7.74999V5.75008H7.67749C7.54488 5.75008 7.41771 5.6974 7.32394 5.60363C7.23017 5.50986 7.17749 5.38269 7.17749 5.25008H6.67749C6.67749 5.51529 6.78285 5.76965 6.97038 5.95718C7.15792 6.14472 7.41227 6.25008 7.67749 6.25008H7.74999V6.85758H8.24999V6.25008H8.32249C8.58771 6.25008 8.84206 6.14472 9.0296 5.95718C9.21713 5.76965 9.32249 5.51529 9.32249 5.25008C9.32249 4.98486 9.21713 4.73051 9.0296 4.54297C8.84206 4.35544 8.58771 4.25008 8.32249 4.25008ZM7.67749 4.25008C7.54488 4.25008 7.41771 4.1974 7.32394 4.10363C7.23017 4.00986 7.17749 3.88269 7.17749 3.75008C7.17749 3.61747 7.23017 3.49029 7.32394 3.39652C7.41771 3.30276 7.54488 3.25008 7.67749 3.25008H7.74999V4.25008H7.67749ZM8.32249 5.75008H8.24999V4.75008H8.32249C8.4551 4.75008 8.58228 4.80276 8.67604 4.89652C8.76981 4.99029 8.82249 5.11747 8.82249 5.25008C8.82249 5.38269 8.76981 5.50986 8.67604 5.60363C8.58228 5.6974 8.4551 5.75008 8.32249 5.75008Z" fill="url(#paint2_linear_1280_10691)"/>
<path d="M5.235 7.74977H4C3.66848 7.74977 3.35054 7.61808 3.11612 7.38366C2.8817 7.14924 2.75 6.8313 2.75 6.49977V5.26477C3.08542 5.22746 3.42494 5.26607 3.74341 5.37776C4.06188 5.48945 4.35115 5.67135 4.58979 5.90999C4.82843 6.14863 5.01033 6.43789 5.12202 6.75637C5.2337 7.07484 5.27232 7.41436 5.235 7.74977Z" fill="url(#paint3_linear_1280_10691)"/>
<path d="M13.25 5.26477V6.49977C13.25 6.8313 13.1183 7.14924 12.8839 7.38366C12.6495 7.61808 12.3315 7.74977 12 7.74977H10.765C10.7277 7.41436 10.7663 7.07484 10.878 6.75637C10.9897 6.43789 11.1716 6.14863 11.4102 5.90999C11.6489 5.67135 11.9381 5.48945 12.2566 5.37776C12.5751 5.26607 12.9146 5.22746 13.25 5.26477Z" fill="url(#paint4_linear_1280_10691)"/>
<path d="M2.75 3.735V2.5C2.75 2.16848 2.8817 1.85054 3.11612 1.61612C3.35054 1.3817 3.66848 1.25 4 1.25H5.235C5.27232 1.58542 5.2337 1.92494 5.12202 2.24341C5.01033 2.56188 4.82843 2.85115 4.58979 3.08979C4.35115 3.32843 4.06188 3.51033 3.74341 3.62202C3.42494 3.7337 3.08542 3.77232 2.75 3.735Z" fill="url(#paint5_linear_1280_10691)"/>
<path d="M13.25 2.5V3.735C12.9146 3.77232 12.5751 3.7337 12.2566 3.62202C11.9381 3.51033 11.6489 3.32843 11.4102 3.08979C11.1716 2.85115 10.9897 2.56188 10.878 2.24341C10.7663 1.92494 10.7277 1.58542 10.765 1.25H12C12.3315 1.25 12.6495 1.3817 12.8839 1.61612C13.1183 1.85054 13.25 2.16848 13.25 2.5Z" fill="url(#paint6_linear_1280_10691)"/>
<path d="M3.5 13.5C4.19036 13.5 4.75 12.9404 4.75 12.25C4.75 11.5596 4.19036 11 3.5 11C2.80964 11 2.25 11.5596 2.25 12.25C2.25 12.9404 2.80964 13.5 3.5 13.5Z" fill="url(#paint7_linear_1280_10691)"/>
<path d="M4.25 13.75H2.75C2.55109 13.75 2.36032 13.829 2.21967 13.9697C2.07902 14.1103 2 14.3011 2 14.5V15.5C2 15.5663 2.02634 15.6299 2.07322 15.6768C2.12011 15.7237 2.1837 15.75 2.25 15.75H4.75C4.8163 15.75 4.87989 15.7237 4.92678 15.6768C4.97366 15.6299 5 15.5663 5 15.5V14.5C5 14.3011 4.92098 14.1103 4.78033 13.9697C4.63968 13.829 4.44891 13.75 4.25 13.75Z" fill="url(#paint8_linear_1280_10691)"/>
<path d="M8 13.5C8.69036 13.5 9.25 12.9404 9.25 12.25C9.25 11.5596 8.69036 11 8 11C7.30964 11 6.75 11.5596 6.75 12.25C6.75 12.9404 7.30964 13.5 8 13.5Z" fill="url(#paint9_linear_1280_10691)"/>
<path d="M8.75 13.75H7.25C7.05109 13.75 6.86032 13.829 6.71967 13.9697C6.57902 14.1103 6.5 14.3011 6.5 14.5V15.5C6.5 15.5663 6.52634 15.6299 6.57322 15.6768C6.62011 15.7237 6.6837 15.75 6.75 15.75H9.25C9.3163 15.75 9.37989 15.7237 9.42678 15.6768C9.47366 15.6299 9.5 15.5663 9.5 15.5V14.5C9.5 14.3011 9.42098 14.1103 9.28033 13.9697C9.13968 13.829 8.94891 13.75 8.75 13.75Z" fill="url(#paint10_linear_1280_10691)"/>
<path d="M12.5 13.5C13.1904 13.5 13.75 12.9404 13.75 12.25C13.75 11.5596 13.1904 11 12.5 11C11.8096 11 11.25 11.5596 11.25 12.25C11.25 12.9404 11.8096 13.5 12.5 13.5Z" fill="url(#paint11_linear_1280_10691)"/>
<path d="M13.25 13.75H11.75C11.5511 13.75 11.3603 13.829 11.2197 13.9697C11.079 14.1103 11 14.3011 11 14.5V15.5C11 15.5663 11.0263 15.6299 11.0732 15.6768C11.1201 15.7237 11.1837 15.75 11.25 15.75H13.75C13.8163 15.75 13.8799 15.7237 13.9268 15.6768C13.9737 15.6299 14 15.5663 14 15.5V14.5C14 14.3011 13.921 14.1103 13.7803 13.9697C13.6397 13.829 13.4489 13.75 13.25 13.75Z" fill="url(#paint12_linear_1280_10691)"/>
<defs>
<linearGradient id="paint0_linear_1280_10691" x1="3.25" y1="8.875" x2="12.75" y2="8.875" gradientUnits="userSpaceOnUse">
<stop stop-color="#002237"/>
<stop offset="1" stop-color="#003352"/>
</linearGradient>
<linearGradient id="paint1_linear_1280_10691" x1="8" y1="7.75" x2="8" y2="1.25" gradientUnits="userSpaceOnUse">
<stop stop-color="#009E77"/>
<stop offset="1" stop-color="#00D291"/>
</linearGradient>
<linearGradient id="paint2_linear_1280_10691" x1="6.67749" y1="4.50008" x2="9.32249" y2="4.50008" gradientUnits="userSpaceOnUse">
<stop stop-color="#FFE37C"/>
<stop offset="1" stop-color="#FFC337"/>
</linearGradient>
<linearGradient id="paint3_linear_1280_10691" x1="2.75" y1="6.49977" x2="5.25" y2="6.49977" gradientUnits="userSpaceOnUse">
<stop stop-color="#FFE37C"/>
<stop offset="1" stop-color="#FFC337"/>
</linearGradient>
<linearGradient id="paint4_linear_1280_10691" x1="10.75" y1="6.49977" x2="13.25" y2="6.49977" gradientUnits="userSpaceOnUse">
<stop stop-color="#FFE37C"/>
<stop offset="1" stop-color="#FFC337"/>
</linearGradient>
<linearGradient id="paint5_linear_1280_10691" x1="2.75" y1="2.5" x2="5.25" y2="2.5" gradientUnits="userSpaceOnUse">
<stop stop-color="#FFE37C"/>
<stop offset="1" stop-color="#FFC337"/>
</linearGradient>
<linearGradient id="paint6_linear_1280_10691" x1="10.75" y1="2.5" x2="13.25" y2="2.5" gradientUnits="userSpaceOnUse">
<stop stop-color="#FFE37C"/>
<stop offset="1" stop-color="#FFC337"/>
</linearGradient>
<linearGradient id="paint7_linear_1280_10691" x1="3.5" y1="11" x2="3.5" y2="13.5" gradientUnits="userSpaceOnUse">
<stop stop-color="#137DBF"/>
<stop offset="1" stop-color="#02476C"/>
</linearGradient>
<linearGradient id="paint8_linear_1280_10691" x1="4.03573e-08" y1="13.75" x2="0.25" y2="15.75" gradientUnits="userSpaceOnUse">
<stop stop-color="#137DBF"/>
<stop offset="1" stop-color="#02476C"/>
</linearGradient>
<linearGradient id="paint9_linear_1280_10691" x1="8" y1="0.5" x2="8" y2="0.5" gradientUnits="userSpaceOnUse">
<stop stop-color="#137DBF"/>
<stop offset="1" stop-color="#02476C"/>
</linearGradient>
<linearGradient id="paint10_linear_1280_10691" x1="8" y1="13.75" x2="8" y2="15.75" gradientUnits="userSpaceOnUse">
<stop stop-color="#137DBF"/>
<stop offset="1" stop-color="#02476C"/>
</linearGradient>
<linearGradient id="paint11_linear_1280_10691" x1="12.5" y1="0.5" x2="12.5" y2="0.5" gradientUnits="userSpaceOnUse">
<stop stop-color="#137DBF"/>
<stop offset="1" stop-color="#02476C"/>
</linearGradient>
<linearGradient id="paint12_linear_1280_10691" x1="12.5" y1="13.75" x2="12.5" y2="15.75" gradientUnits="userSpaceOnUse">
<stop stop-color="#137DBF"/>
<stop offset="1" stop-color="#02476C"/>
</linearGradient>
</defs>
</svg>
