<svg width="12" height="15" viewBox="0 0 12 15" fill="none" xmlns="http://www.w3.org/2000/svg">
<path d="M9.06489 1.43766C8.95382 1.31657 8.81997 1.21856 8.671 1.14925C8.52203 1.07994 8.36085 1.04067 8.19669 1.03371C8.03252 1.02674 7.8686 1.05221 7.71429 1.10865C7.55998 1.1651 7.41831 1.25141 7.29739 1.36266L7.24739 1.41016C7.24739 1.07864 7.11569 0.760693 6.88127 0.526273C6.64685 0.291852 6.32891 0.160156 5.99739 0.160156C5.66587 0.160156 5.34792 0.291852 5.1135 0.526273C4.87908 0.760693 4.74739 1.07864 4.74739 1.41016L4.69739 1.36266C4.45306 1.13855 4.12971 1.02068 3.79847 1.03498C3.46723 1.04928 3.15524 1.19458 2.93114 1.43891C2.70703 1.68324 2.58916 2.00659 2.60346 2.33782C2.61776 2.66906 2.76306 2.98105 3.00739 3.20516L3.82739 3.93766C3.87489 3.9796 3.93654 4.00194 3.99989 4.00016H7.99989C8.06151 4.00068 8.12117 3.97842 8.16739 3.93766L8.99989 3.20266C9.24229 2.97707 9.38528 2.66451 9.39747 2.3336C9.40966 2.00269 9.29004 1.68046 9.06489 1.43766Z" fill="url(#paint0_linear_1280_10726)"/>
<path d="M7.87488 3H4.12488C3.77874 3.00007 3.4455 3.1314 3.19238 3.3675L3.83238 3.9375C3.8786 3.97827 3.93825 4.00053 3.99988 4H7.99988C8.06151 4.00053 8.12116 3.97827 8.16738 3.9375L8.80738 3.3675C8.55413 3.13161 8.22098 3.00032 7.87488 3Z" fill="#422011"/>
<path d="M7.875 3.5H4.125C3.89294 3.5 3.67038 3.59219 3.50628 3.75628C3.34219 3.92038 3.25 4.14294 3.25 4.375C3.25 4.60706 3.34219 4.82962 3.50628 4.99372C3.67038 5.15781 3.89294 5.25 4.125 5.25H7.875C8.10706 5.25 8.32962 5.15781 8.49372 4.99372C8.65781 4.82962 8.75 4.60706 8.75 4.375C8.75 4.14294 8.65781 3.92038 8.49372 3.75628C8.32962 3.59219 8.10706 3.5 7.875 3.5Z" fill="url(#paint1_linear_1280_10726)"/>
<path d="M11.3424 9.6225L9.98243 6.175C9.81688 5.75495 9.52879 5.39442 9.15561 5.14028C8.78243 4.88615 8.34143 4.75016 7.88993 4.75H4.10993C3.65843 4.75016 3.21743 4.88615 2.84425 5.14028C2.47107 5.39442 2.18298 5.75495 2.01743 6.175L0.65743 9.6225C0.432838 10.1912 0.350698 10.8061 0.418165 11.4138C0.485632 12.0215 0.700659 12.6034 1.04452 13.109C1.38837 13.6145 1.85063 14.0284 2.39101 14.3144C2.9314 14.6004 3.53352 14.7499 4.14493 14.75H7.85493C8.46634 14.7499 9.06846 14.6004 9.60885 14.3144C10.1492 14.0284 10.6115 13.6145 10.9553 13.109C11.2992 12.6034 11.5142 12.0215 11.5817 11.4138C11.6492 10.8061 11.567 10.1912 11.3424 9.6225Z" fill="url(#paint2_linear_1280_10726)"/>
<path d="M6.32249 9.50008H6.24999V8.50008H6.32249C6.4551 8.50008 6.58228 8.55276 6.67604 8.64652C6.76981 8.74029 6.82249 8.86747 6.82249 9.00008H7.32249C7.32249 8.73486 7.21713 8.48051 7.0296 8.29297C6.84206 8.10544 6.58771 8.00008 6.32249 8.00008H6.24999V7.39258H5.74999V8.00008H5.67749C5.41227 8.00008 5.15792 8.10544 4.97038 8.29297C4.78285 8.48051 4.67749 8.73486 4.67749 9.00008C4.67749 9.26529 4.78285 9.51965 4.97038 9.70718C5.15792 9.89472 5.41227 10.0001 5.67749 10.0001H5.74999V11.0001H5.67749C5.54488 11.0001 5.41771 10.9474 5.32394 10.8536C5.23017 10.7599 5.17749 10.6327 5.17749 10.5001H4.67749C4.67749 10.7653 4.78285 11.0196 4.97038 11.2072C5.15792 11.3947 5.41227 11.5001 5.67749 11.5001H5.74999V12.1076H6.24999V11.5001H6.32249C6.58771 11.5001 6.84206 11.3947 7.0296 11.2072C7.21713 11.0196 7.32249 10.7653 7.32249 10.5001C7.32249 10.2349 7.21713 9.98051 7.0296 9.79297C6.84206 9.60544 6.58771 9.50008 6.32249 9.50008ZM5.67749 9.50008C5.54488 9.50008 5.41771 9.4474 5.32394 9.35363C5.23017 9.25986 5.17749 9.13269 5.17749 9.00008C5.17749 8.86747 5.23017 8.74029 5.32394 8.64652C5.41771 8.55276 5.54488 8.50008 5.67749 8.50008H5.74999V9.50008H5.67749ZM6.32249 11.0001H6.24999V10.0001H6.32249C6.4551 10.0001 6.58228 10.0528 6.67604 10.1465C6.76981 10.2403 6.82249 10.3675 6.82249 10.5001C6.82249 10.6327 6.76981 10.7599 6.67604 10.8536C6.58228 10.9474 6.4551 11.0001 6.32249 11.0001Z" fill="url(#paint3_linear_1280_10726)"/>
<defs>
<linearGradient id="paint0_linear_1280_10726" x1="5.99989" y1="0.250156" x2="5.99989" y2="4.00016" gradientUnits="userSpaceOnUse">
<stop stop-color="#AD582D"/>
<stop offset="1" stop-color="#6D3C23"/>
</linearGradient>
<linearGradient id="paint1_linear_1280_10726" x1="3.25" y1="4.375" x2="8.75" y2="4.375" gradientUnits="userSpaceOnUse">
<stop stop-color="#FFC033"/>
<stop offset="1" stop-color="#EF8E2E"/>
</linearGradient>
<linearGradient id="paint2_linear_1280_10726" x1="5.99993" y1="4.75" x2="5.99993" y2="14.75" gradientUnits="userSpaceOnUse">
<stop stop-color="#AD582D"/>
<stop offset="1" stop-color="#6D3C23"/>
</linearGradient>
<linearGradient id="paint3_linear_1280_10726" x1="5.99999" y1="7.39258" x2="5.99999" y2="12.1076" gradientUnits="userSpaceOnUse">
<stop stop-color="#FFC033"/>
<stop offset="1" stop-color="#EF8E2E"/>
</linearGradient>
</defs>
</svg>
