<svg width="24" height="20" viewBox="0 0 24 20" fill="none" xmlns="http://www.w3.org/2000/svg">
<path d="M9.72999 10.765C9.68121 10.5481 9.5601 10.3542 9.38656 10.2151C9.21301 10.0761 8.99735 10.0003 8.77499 10H3.49799C3.27581 10.0005 3.06038 10.0765 2.88704 10.2155C2.7137 10.3544 2.59274 10.5482 2.54399 10.765L1.02399 17.606C0.991973 17.7493 0.992677 17.898 1.02605 18.041C1.05943 18.1841 1.12461 18.3177 1.21677 18.4321C1.30892 18.5464 1.42567 18.6385 1.55832 18.7015C1.69098 18.7645 1.83614 18.7968 1.98299 18.796H10.296C10.4424 18.7961 10.587 18.7632 10.719 18.6999C10.8511 18.6366 10.9672 18.5444 11.0588 18.4301C11.1504 18.3159 11.2151 18.1825 11.2482 18.0398C11.2813 17.8972 11.2819 17.7489 11.25 17.606L9.72999 10.765ZM21.457 10.765C21.4082 10.5482 21.2873 10.3544 21.1139 10.2155C20.9406 10.0765 20.7252 10.0005 20.503 10H15.225C15.0028 9.99998 14.7872 10.0758 14.6139 10.2149C14.4407 10.354 14.32 10.548 14.272 10.765L12.751 17.606C12.7192 17.7494 12.72 17.8981 12.7535 18.0411C12.787 18.1841 12.8523 18.3178 12.9445 18.4321C13.0368 18.5464 13.1536 18.6385 13.2863 18.7015C13.4189 18.7645 13.5641 18.7968 13.711 18.796H22.023C22.1694 18.7961 22.314 18.7632 22.446 18.6999C22.5781 18.6366 22.6942 18.5444 22.7858 18.4301C22.8774 18.3159 22.9421 18.1825 22.9752 18.0398C23.0083 17.8972 23.0089 17.7489 22.977 17.606L21.457 10.765Z" fill="#FFEF5E"/>
<path d="M15.593 1.97008C15.5442 1.75314 15.4231 1.55923 15.2496 1.42022C15.0761 1.2812 14.8604 1.20533 14.638 1.20508H9.36103C9.13884 1.20556 8.92342 1.28153 8.75008 1.42053C8.57674 1.55953 8.45578 1.7533 8.40703 1.97008L6.88703 8.81008C6.85499 8.95349 6.85571 9.10228 6.88914 9.24537C6.92258 9.38846 6.98785 9.52217 7.08012 9.63654C7.17238 9.75091 7.28925 9.84299 7.42204 9.90593C7.55482 9.96888 7.70009 10.0011 7.84703 10.0001H16.159C16.3054 9.99997 16.4499 9.967 16.5818 9.90361C16.7138 9.84022 16.8298 9.74802 16.9213 9.63381C17.0129 9.51961 17.0777 9.3863 17.1108 9.24374C17.144 9.10117 17.1448 8.95297 17.113 8.81008L15.593 1.97008Z" fill="#FFEF5E"/>
<path d="M10.3751 3.92408C10.4238 3.70747 10.5446 3.51382 10.7177 3.37484C10.8908 3.23586 11.106 3.15979 11.3281 3.15908H15.8571L15.5921 1.96908C15.5431 1.75232 15.4219 1.55865 15.2484 1.41983C15.0748 1.28101 14.8593 1.20528 14.6371 1.20508H9.36005C9.13787 1.20556 8.92244 1.28153 8.7491 1.42053C8.57576 1.55953 8.4548 1.7533 8.40605 1.97008L6.88605 8.81008C6.85402 8.95349 6.85474 9.10228 6.88817 9.24537C6.9216 9.38846 6.98688 9.52217 7.07914 9.63654C7.1714 9.75091 7.28828 9.84299 7.42106 9.90593C7.55384 9.96888 7.69911 10.0011 7.84605 10.0001H9.02406L10.3751 3.92408Z" fill="#FFF9BF"/>
<path d="M4.51099 12.72C4.55958 12.5029 4.6806 12.3087 4.85417 12.1695C5.02773 12.0303 5.2435 11.9543 5.46599 11.954H9.99499L9.72999 10.765C9.68121 10.5481 9.5601 10.3542 9.38656 10.2151C9.21301 10.0761 8.99735 10.0003 8.77499 10H3.49799C3.27581 10.0005 3.06038 10.0765 2.88704 10.2155C2.7137 10.3544 2.59274 10.5482 2.54399 10.765L1.02399 17.606C0.991973 17.7493 0.992677 17.898 1.02605 18.041C1.05943 18.1841 1.12461 18.3177 1.21677 18.4321C1.30892 18.5464 1.42567 18.6385 1.55832 18.7015C1.69098 18.7645 1.83614 18.7968 1.98299 18.796H3.16199L4.51099 12.72ZM16.239 12.72C16.2875 12.503 16.4084 12.309 16.5818 12.1698C16.7551 12.0306 16.9707 11.9545 17.193 11.954H21.723L21.457 10.765C21.4082 10.5482 21.2873 10.3544 21.1139 10.2155C20.9406 10.0765 20.7252 10.0005 20.503 10H15.225C15.0028 9.99998 14.7872 10.0758 14.6139 10.2149C14.4407 10.354 14.32 10.548 14.272 10.765L12.751 17.606C12.7192 17.7494 12.72 17.8981 12.7535 18.0411C12.787 18.1841 12.8523 18.3178 12.9445 18.4321C13.0368 18.5464 13.1536 18.6385 13.2863 18.7015C13.4189 18.7645 13.5641 18.7968 13.711 18.796H14.889L16.239 12.72Z" fill="#FFF9BF"/>
<path d="M9.72999 10.765C9.68121 10.5481 9.5601 10.3542 9.38656 10.2151C9.21301 10.0761 8.99735 10.0003 8.77499 10H3.49799C3.27581 10.0005 3.06038 10.0765 2.88704 10.2155C2.7137 10.3544 2.59274 10.5482 2.54399 10.765L1.02399 17.606C0.991973 17.7493 0.992677 17.898 1.02605 18.041C1.05943 18.1841 1.12461 18.3177 1.21677 18.4321C1.30892 18.5464 1.42567 18.6385 1.55832 18.7015C1.69098 18.7645 1.83614 18.7968 1.98299 18.796H10.296C10.4424 18.7961 10.587 18.7632 10.719 18.6999C10.8511 18.6366 10.9672 18.5444 11.0588 18.4301C11.1504 18.3159 11.2151 18.1825 11.2482 18.0398C11.2813 17.8972 11.2819 17.7489 11.25 17.606L9.72999 10.765ZM21.457 10.765C21.4082 10.5482 21.2873 10.3544 21.1139 10.2155C20.9406 10.0765 20.7252 10.0005 20.503 10H15.225C15.0028 9.99998 14.7872 10.0758 14.6139 10.2149C14.4407 10.354 14.32 10.548 14.272 10.765L12.751 17.606C12.7192 17.7494 12.72 17.8981 12.7535 18.0411C12.787 18.1841 12.8523 18.3178 12.9445 18.4321C13.0368 18.5464 13.1536 18.6385 13.2863 18.7015C13.4189 18.7645 13.5641 18.7968 13.711 18.796H22.023C22.1694 18.7961 22.314 18.7632 22.446 18.6999C22.5781 18.6366 22.6942 18.5444 22.7858 18.4301C22.8774 18.3159 22.9421 18.1825 22.9752 18.0398C23.0083 17.8972 23.0089 17.7489 22.977 17.606L21.457 10.765Z" stroke="#191919" stroke-linecap="round" stroke-linejoin="round"/>
<path d="M15.593 1.97008C15.5442 1.75314 15.4231 1.55923 15.2496 1.42022C15.0761 1.2812 14.8604 1.20533 14.638 1.20508H9.36103C9.13884 1.20556 8.92342 1.28153 8.75008 1.42053C8.57674 1.55953 8.45578 1.7533 8.40703 1.97008L6.88703 8.81008C6.85499 8.95349 6.85571 9.10228 6.88914 9.24537C6.92258 9.38846 6.98785 9.52217 7.08012 9.63654C7.17238 9.75091 7.28925 9.84299 7.42204 9.90593C7.55482 9.96888 7.70009 10.0011 7.84703 10.0001H16.159C16.3054 9.99997 16.4499 9.967 16.5818 9.90361C16.7138 9.84022 16.8298 9.74802 16.9213 9.63381C17.0129 9.51961 17.0777 9.3863 17.1108 9.24374C17.144 9.10117 17.1448 8.95297 17.113 8.81008L15.593 1.97008Z" stroke="#191919" stroke-linecap="round" stroke-linejoin="round"/>
<path d="M11.9999 3.16016H10.9239C10.8131 3.1606 10.7056 3.19861 10.6192 3.268C10.5327 3.33738 10.4724 3.43403 10.4479 3.54216L9.98792 5.63416M6.13492 11.9552H5.05992C4.94876 11.9554 4.84099 11.9935 4.75431 12.0631C4.66763 12.1327 4.60719 12.2297 4.58292 12.3382L4.11792 14.4302M17.8629 11.9552H16.7879C16.6768 11.9554 16.569 11.9935 16.4823 12.0631C16.3956 12.1327 16.3352 12.2297 16.3109 12.3382L15.8459 14.4302" stroke="#191919" stroke-linecap="round" stroke-linejoin="round"/>
</svg>
