<svg width="28" height="28" viewBox="0 0 28 28" fill="none" xmlns="http://www.w3.org/2000/svg">
<path d="M4.68992 6.96516C3.20825 8.92516 2.33325 11.3635 2.33325 14.0002C2.33325 20.4402 7.55992 25.6668 13.9999 25.6668C20.4399 25.6668 25.6666 20.4402 25.6666 14.0002C25.6666 7.56016 20.4399 2.3335 13.9999 2.3335" stroke="#003D31" stroke-width="1.5" stroke-linecap="round" stroke-linejoin="round"/>
<path d="M5.83325 14.0002C5.83325 18.5152 9.48492 22.1668 13.9999 22.1668C18.5149 22.1668 22.1666 18.5152 22.1666 14.0002C22.1666 9.48516 18.5149 5.8335 13.9999 5.8335" stroke="#F0FF3D" stroke-width="1.5" stroke-linecap="round" stroke-linejoin="round"/>
<path d="M14 18.6668C16.5783 18.6668 18.6667 16.5785 18.6667 14.0002C18.6667 11.4218 16.5783 9.3335 14 9.3335" stroke="#F0FF3D" stroke-width="1.5" stroke-linecap="round" stroke-linejoin="round"/>
</svg>
