<svg width="20" height="20" viewBox="0 0 20 20" fill="none" xmlns="http://www.w3.org/2000/svg">
<g clip-path="url(#clip0_1280_10296)">
<path d="M15.8686 11.0642C17.7925 9.66973 19.1578 7.63637 19.7202 5.32771H15.7131C15.1666 6.64956 14.1786 7.74095 12.9174 8.41586C11.6563 9.09076 10.2001 9.3074 8.79709 9.02884C7.3941 8.75029 6.13113 7.99378 5.22347 6.88827C4.31582 5.78277 3.81965 4.39669 3.81956 2.96631H1.84627e-06C1.84627e-06 6.2964 1.62824 9.24577 4.13177 11.0642C2.85164 11.9906 1.80962 13.2076 1.09134 14.6151C0.373068 16.0227 -0.00095892 17.5805 1.84627e-06 19.1607H3.81956C3.8135 18.3452 3.96889 17.5366 4.27677 16.7815C4.58465 16.0263 5.03894 15.3395 5.61345 14.7607C6.18796 14.1819 6.87133 13.7226 7.62419 13.4091C8.37704 13.0956 9.18449 12.9342 10 12.9342C10.8155 12.9342 11.623 13.0956 12.3758 13.4091C13.1287 13.7226 13.812 14.1819 14.3866 14.7607C14.9611 15.3395 15.4153 16.0263 15.7232 16.7815C16.0311 17.5366 16.1865 18.3452 16.1804 19.1607H20C20.001 17.5806 19.627 16.0227 18.9088 14.6152C18.1906 13.2077 17.1486 11.9907 15.8686 11.0642Z" fill="#003D31"/>
<path d="M17.9757 0.838867L16.0659 4.14681H19.8851L17.9757 0.838867Z" fill="#003D31"/>
</g>
<defs>
<clipPath id="clip0_1280_10296">
<rect width="20" height="18.322" fill="white" transform="translate(0 0.838867)"/>
</clipPath>
</defs>
</svg>
