<svg width="48" height="49" viewBox="0 0 48 49" fill="none" xmlns="http://www.w3.org/2000/svg">
<path d="M13 1.3335C15.2091 1.3335 17 3.12436 17 5.3335C17 7.21443 15.7015 8.79098 13.9521 9.21826V11.1782L10.7578 9.3335H5C2.79086 9.3335 1 7.54263 1 5.3335C1 3.12436 2.79086 1.3335 5 1.3335H13ZM5 4.3335C4.44772 4.3335 4 4.78121 4 5.3335C4 5.88578 4.44772 6.3335 5 6.3335C5.55228 6.3335 6 5.88578 6 5.3335C6 4.78121 5.55228 4.3335 5 4.3335ZM9 4.3335C8.44772 4.3335 8 4.78121 8 5.3335C8 5.88578 8.44772 6.3335 9 6.3335C9.55229 6.3335 10 5.88578 10 5.3335C10 4.78121 9.55229 4.3335 9 4.3335ZM13 4.3335C12.4477 4.3335 12 4.78121 12 5.3335C12 5.88578 12.4477 6.3335 13 6.3335C13.5523 6.3335 14 5.88578 14 5.3335C14 4.78121 13.5523 4.3335 13 4.3335Z" fill="#71A0E4"/>
<path d="M24 0.333496C37.2548 0.333496 48 11.0787 48 24.3335C48 37.5883 37.2548 48.3335 24 48.3335C10.7452 48.3335 0 37.5883 0 24.3335C0 19.4434 1.46316 14.8954 3.97461 11.1021C3.98307 11.1021 3.99153 11.103 4 11.103H7.69238C4.7589 14.7143 3 19.3183 3 24.3335C3 35.9315 12.402 45.3335 24 45.3335C35.598 45.3335 45 35.9315 45 24.3335C45 12.7355 35.598 3.3335 24 3.3335C22.1177 3.3335 20.2934 3.58189 18.5576 4.04639C18.0817 2.99332 17.2521 2.13501 16.2197 1.62256C18.6596 0.786913 21.2769 0.333496 24 0.333496ZM24 5.3335C34.4934 5.3335 43 13.8401 43 24.3335C43 34.8269 34.4934 43.3335 24 43.3335C13.5066 43.3335 5 34.8269 5 24.3335C5 19.1896 7.04502 14.5241 10.3652 11.103H11.1963L15.1904 13.4087V10.9595C17.377 10.4253 18.9999 8.45409 19 6.10303C19 6.06875 18.9978 6.0346 18.9971 6.00049C20.5912 5.56648 22.2684 5.3335 24 5.3335Z" fill="#003D31"/>
<g clip-path="url(#clip0_1462_2270)">
<path d="M15.3 22.8648C15.3 22.8367 15.3 22.8133 15.3 22.7852C13.9313 22.9773 12.9141 24.1445 12.9141 25.5227V26.1555C12.9141 27.5383 13.9359 28.7102 15.3094 28.8977C15.3 28.7992 15.3 28.7055 15.3 28.607V22.8648Z" fill="#F0FF3D"/>
<path d="M32.7 22.7852V22.8648V28.607C32.7 28.7055 32.6954 28.8039 32.6907 28.8977C34.0641 28.7102 35.086 27.5383 35.086 26.1555V25.5227C35.0813 24.1445 34.0641 22.9727 32.7 22.7852Z" fill="#F0FF3D"/>
<path d="M23.6673 32.9849H24.3329C25.022 32.9849 25.5798 33.5427 25.5798 34.2271V34.4661C25.5798 35.1552 25.022 35.7083 24.3329 35.7083H23.6673C22.9782 35.7083 22.4204 35.1505 22.4204 34.4661V34.2271C22.4204 33.5427 22.9782 32.9849 23.6673 32.9849Z" fill="#F0FF3D"/>
<path d="M19.2235 20.7508H28.772C29.1048 20.7508 29.372 20.4836 29.372 20.1555C29.372 18.4633 27.9985 17.0898 26.3063 17.0898H25.7626C26.2923 17.5164 26.6017 18.1633 26.6017 18.843C26.6017 19.3305 26.2032 19.7289 25.7157 19.7289H22.2798C21.7923 19.7289 21.3938 19.3305 21.3938 18.843C21.3938 18.1633 21.6985 17.5164 22.2329 17.0898H21.6892C19.997 17.0898 18.6235 18.4633 18.6235 20.1555C18.6282 20.4836 18.8954 20.7508 19.2235 20.7508Z" fill="#F0FF3D"/>
<path d="M22.2844 19.3209H25.7203C25.9875 19.3209 26.2031 19.1053 26.2031 18.8381C26.2031 18.1865 25.8656 17.5818 25.3078 17.249C24.5719 17.9381 23.4328 17.9381 22.6969 17.249C22.1391 17.5818 21.7969 18.1865 21.7969 18.8381C21.7969 19.1053 22.0125 19.3209 22.2844 19.3209C22.2797 19.3209 22.2797 19.3209 22.2844 19.3209Z" fill="#F0FF3D"/>
<path d="M23.9999 17.3616C24.8361 17.3616 25.514 16.6838 25.514 15.8476C25.514 15.0114 24.8361 14.3335 23.9999 14.3335C23.1637 14.3335 22.4858 15.0114 22.4858 15.8476C22.4858 16.6838 23.1637 17.3616 23.9999 17.3616Z" fill="#F0FF3D"/>
<path d="M24 27.1492C23.0906 27.1539 22.1859 27.0789 21.2906 26.9336C21.2859 26.9945 21.2812 27.0602 21.2812 27.1211C21.2812 27.4398 21.3469 27.7539 21.4781 28.0492C21.5203 28.1477 21.6141 28.2227 21.7219 28.2367C22.4766 28.3398 23.2406 28.3914 24 28.3914C24.7594 28.3914 25.5234 28.3398 26.2781 28.2367C26.3859 28.2227 26.4797 28.1477 26.5219 28.0492C26.6484 27.7586 26.7141 27.4398 26.7188 27.1211C26.7188 27.0555 26.7141 26.9945 26.7094 26.9336C25.8141 27.0789 24.9047 27.1539 24 27.1492Z" fill="#F0FF3D"/>
<path d="M29.7422 19.668C29.7656 19.8273 29.775 19.9914 29.775 20.1508C29.775 20.7039 29.325 21.1492 28.7766 21.1492H19.2234C18.6703 21.1492 18.225 20.7039 18.225 20.1508C18.225 19.9867 18.2344 19.8273 18.2578 19.668C16.7625 20.0008 15.7031 21.332 15.7031 22.8648V28.607C15.7031 30.4164 17.1703 31.8836 18.9797 31.8836H29.0203C30.8297 31.8836 32.2969 30.4164 32.2969 28.607V22.8648C32.2969 21.332 31.2375 20.0008 29.7422 19.668ZM18.9797 25.4102C18.7641 25.6305 18.3891 25.4852 18.3844 25.1758V25.1664C18.3797 24.0273 19.3031 23.1039 20.4422 23.0992C21.4781 23.0992 22.3547 23.8633 22.4906 24.8898C22.5047 24.9789 22.5094 25.0727 22.5094 25.1617C22.5094 25.3539 22.3594 25.5086 22.1672 25.5133C22.0734 25.5133 21.9844 25.4758 21.9188 25.4102C21.1172 24.5992 19.8141 24.5898 19.0031 25.3914C18.9937 25.3961 18.9891 25.4008 18.9797 25.4102ZM24 30.0508C22.2141 30.0508 20.7656 28.7008 20.7656 27.0414C20.7656 26.943 20.7703 26.8445 20.7797 26.7461C20.7984 26.568 20.9578 26.432 21.1359 26.4508C21.1453 26.4508 21.1547 26.4508 21.1641 26.4555C22.0969 26.6289 23.0484 26.718 24 26.7133C24.9516 26.718 25.8984 26.6289 26.8359 26.4555C27.0141 26.4227 27.1828 26.5445 27.2156 26.7227C27.2156 26.732 27.2203 26.7414 27.2203 26.7508C27.2297 26.8492 27.2344 26.9477 27.2344 27.0461C27.2344 28.7008 25.7859 30.0461 24 30.0508ZM29.0203 25.4102C28.2188 24.5992 26.9156 24.5898 26.1047 25.3914C26.1 25.3961 26.0906 25.4055 26.0859 25.4102C25.8703 25.6305 25.4953 25.4852 25.4906 25.1758V25.1664C25.4906 24.0273 26.4094 23.1039 27.5484 23.0992C28.6875 23.0945 29.6109 24.018 29.6156 25.157C29.6203 25.3492 29.4656 25.5086 29.2734 25.5086C29.1797 25.5133 29.0859 25.4758 29.0203 25.4102Z" fill="#F0FF3D"/>
</g>
<defs>
<clipPath id="clip0_1462_2270">
<rect width="24" height="24" fill="white" transform="translate(12 14.3335)"/>
</clipPath>
</defs>
</svg>
