<svg width="20" height="20" viewBox="0 0 20 20" fill="none" xmlns="http://www.w3.org/2000/svg">
<path d="M11.1958 8.40575C11.1962 8.51126 11.2383 8.61232 11.313 8.68693C11.3876 8.76154 11.4886 8.80365 11.5941 8.80408H19.1666C19.1666 6.69009 18.3269 4.66268 16.832 3.16786C15.3372 1.67303 13.3098 0.833252 11.1958 0.833252V8.40575Z" fill="#FF808C" stroke="#191919" stroke-linecap="round" stroke-linejoin="round"/>
<path d="M16.8356 16.0349C17.5764 15.2953 18.1637 14.4166 18.5638 13.4492C18.9638 12.4819 19.1686 11.445 19.1664 10.3982H11.5939C11.3748 10.3982 11.3223 10.5249 11.4773 10.6799L16.8356 16.0349Z" fill="#C9F7CA"/>
<path d="M17.1733 10.3982C16.963 11.92 16.3144 13.3478 15.3066 14.5074L16.8341 16.0349C17.5753 15.2954 18.1629 14.4168 18.5632 13.4494C18.9635 12.4821 19.1686 11.4451 19.1666 10.3982H17.1733Z" fill="#78EB7B"/>
<path d="M16.8356 16.0349C17.5764 15.2953 18.1637 14.4166 18.5638 13.4492C18.9638 12.4819 19.1686 11.445 19.1664 10.3982H11.5939C11.3748 10.3982 11.3223 10.5249 11.4773 10.6799L16.8356 16.0349Z" stroke="#191919" stroke-linecap="round" stroke-linejoin="round"/>
<path d="M8.80405 3.22485C7.49321 3.22486 6.20261 3.54815 5.04657 4.16609C3.89053 4.78403 2.90472 5.67754 2.17649 6.76747C1.44825 7.8574 1.00006 9.11012 0.871613 10.4146C0.743167 11.7192 0.938433 13.0352 1.44011 14.2463C1.94179 15.4573 2.7344 16.5259 3.74773 17.3575C4.76105 18.189 5.96382 18.7578 7.24948 19.0134C8.53514 19.2691 9.86401 19.2037 11.1184 18.8232C12.3727 18.4426 13.5139 17.7585 14.4407 16.8315L9.08571 11.4765C8.91711 11.2886 8.81773 11.0487 8.80405 10.7965V3.22485Z" fill="#FFF9BF"/>
<path d="M4.8183 14.9658C3.83717 14.3992 2.98833 13.6297 2.32855 12.7086C1.66877 11.7876 1.21325 10.7363 0.992468 9.625C0.657375 11.3017 0.870322 13.0417 1.59986 14.5881C2.32941 16.1344 3.53687 17.4053 5.04397 18.2128C6.55107 19.0204 8.27792 19.322 9.96952 19.073C11.6611 18.824 13.2278 18.0376 14.4383 16.83L12.6466 15.0383C11.4459 15.7011 10.0944 16.0427 8.72295 16.03C7.3515 16.0173 6.00655 15.6507 4.8183 14.9658Z" fill="#FFEF5E"/>
<path d="M8.80405 3.22485C7.49321 3.22486 6.20261 3.54815 5.04657 4.16609C3.89053 4.78403 2.90472 5.67754 2.17649 6.76747C1.44825 7.8574 1.00006 9.11012 0.871613 10.4146C0.743167 11.7192 0.938433 13.0352 1.44011 14.2463C1.94179 15.4573 2.7344 16.5259 3.74773 17.3575C4.76105 18.189 5.96382 18.7578 7.24948 19.0134C8.53514 19.2691 9.86401 19.2037 11.1184 18.8232C12.3727 18.4426 13.5139 17.7585 14.4407 16.8315L9.08571 11.4765C8.91711 11.2886 8.81773 11.0487 8.80405 10.7965V3.22485Z" stroke="#191919" stroke-linecap="round" stroke-linejoin="round"/>
</svg>
