<svg width="94" height="120" viewBox="0 0 94 120" fill="none" xmlns="http://www.w3.org/2000/svg">
<path d="M92.325 14.3376V58.6126C92.325 96.8001 62.6374 110.438 48.8499 117.75L47 118.75C35.9249 112.5 22.675 106.65 12.9 93.7501C6.29867 85.0795 2.44562 74.6305 1.83745 63.75C1.56245 60.3501 1.64995 61.6126 1.64995 14.3751C4.74995 13.4376 46.9125 1.25005 47.075 1.32505C47.2375 1.40005 86.2375 12.5626 92.325 14.3376Z" fill="#7498F0"/>
<path d="M88.0499 54.0625C87.2012 54.0625 86.3873 53.7254 85.7872 53.1253C85.1871 52.5251 84.8499 51.7112 84.8499 50.8625V25.6625C84.8431 24.0186 84.3051 22.4209 83.3162 21.1076C82.3273 19.7943 80.9404 18.8358 79.3624 18.375C47.1874 9.10002 48.5249 9.35002 46.9999 9.35002C45.4749 9.35002 46.7999 9.10002 14.6249 18.375C13.0445 18.8336 11.6549 19.7911 10.6636 21.1046C9.67233 22.4181 9.13255 24.017 9.1249 25.6625V50.8625C9.12491 51.709 8.78948 52.5211 8.19207 53.1208C7.59465 53.7206 6.78393 54.0592 5.9374 54.0625H1.6499V58.6125C1.6499 75.5125 7.3374 89.95 19.8249 101.325C29.2749 110 40.7499 115.25 46.9999 118.75L48.8624 117.75C62.6124 110.438 92.3374 96.8 92.3374 58.6125V54.0625H88.0499Z" fill="#515CD2"/>
<path d="M78.3249 21.975C79.1386 22.2041 79.8535 22.6964 80.3578 23.3749C80.8621 24.0533 81.1275 24.8797 81.1124 25.725C81.1124 61.25 81.3999 62.5 80.1999 68.75C76.3249 89.125 60.9124 98.675 48.8249 105.125C48.2652 105.424 47.6406 105.58 47.0062 105.58C46.3718 105.58 45.7471 105.424 45.1874 105.125C36.9124 100.625 29.0999 95.85 23.0499 88.575C15.8624 80.0375 12.8499 69.825 12.8499 58.6625V25.6625C12.8391 24.8182 13.1061 23.9939 13.6098 23.3163C14.1134 22.6387 14.8259 22.1454 15.6374 21.9125L45.9249 13.1625C46.6191 12.9624 47.3557 12.9624 48.0499 13.1625L78.3249 21.975Z" fill="#FFBD38"/>
<path d="M81.1124 25.6623V31.9123C81.1199 31.0707 80.8531 30.2495 80.3524 29.573C79.8518 28.8964 79.1445 28.4012 78.3374 28.1623C75.2249 27.2998 61.9999 23.4623 48.0499 19.4123C46.6624 18.9998 46.2374 19.3248 40.1249 21.0748L15.6374 28.2373C14.8291 28.4758 14.1202 28.9705 13.6174 29.6468C13.1146 30.3232 12.8453 31.1446 12.8499 31.9873V25.7373C12.8453 24.8946 13.1146 24.0732 13.6174 23.3968C14.1202 22.7205 14.8291 22.2258 15.6374 21.9873C34.9374 16.4373 34.8749 16.4748 45.9249 13.2373C48.0124 12.6748 47.3249 13.2373 78.3374 21.9873C79.1322 22.2226 79.8306 22.7065 80.33 23.3679C80.8295 24.0294 81.1037 24.8335 81.1124 25.6623Z" fill="#FF9F38"/>
<path d="M81.1124 39.5125C81.1124 58.55 81.3999 62.4875 80.1999 68.725C76.3374 89.0625 60.9624 98.6125 48.9499 105.062C48.3724 105.369 47.7287 105.529 47.0749 105.529C46.4212 105.529 45.7774 105.369 45.1999 105.062C43.5124 104.137 41.7249 103.162 40.3374 102.325C56.4249 93.3 74.9374 79.825 79.8999 53.7125C80.7548 49.0285 81.1608 44.2736 81.1124 39.5125Z" fill="#FF9F38"/>
<path d="M75.5375 32.3749C73.195 44.5994 68.3729 56.2144 61.3687 66.5036C54.3645 76.7928 45.3266 85.538 34.8125 92.1998C33.3384 93.1275 31.5904 93.5207 29.861 93.3137C28.1317 93.1066 26.5259 92.3118 25.3125 91.0623C16.625 82.0873 12.8125 71.1998 12.8125 58.5623V32.3124C12.8132 31.3463 13.1282 30.4067 13.71 29.6355C14.2918 28.8642 15.1088 28.3033 16.0375 28.0374L45.275 19.6249C46.3935 19.2999 47.5815 19.2999 48.7 19.6249C68.575 25.3499 67.2125 24.9999 71.7625 26.2499C73.0422 26.6162 74.1387 27.4476 74.8371 28.5807C75.5355 29.7138 75.7853 31.067 75.5375 32.3749Z" fill="#FFDB56"/>
<path d="M48.35 25.425C47.3868 25.1438 46.3632 25.1438 45.4 25.425L22.25 32.075C21.1706 32.3948 20.2229 33.0538 19.5475 33.9544C18.872 34.855 18.5047 35.9493 18.5 37.075V41.075C18.4984 41.7633 18.6327 42.4451 18.8953 43.0813C19.158 43.7175 19.5437 44.2955 20.0304 44.7822C20.517 45.2689 21.0951 45.6546 21.7313 45.9172C22.3674 46.1799 23.0493 46.3142 23.7375 46.3125H38.9875C39.8101 46.3277 40.6246 46.1489 41.3652 45.7905C42.1057 45.4322 42.7514 44.9044 43.25 44.25L51.2125 33.625C51.7228 32.9371 52.057 32.1348 52.186 31.288C52.315 30.4412 52.2348 29.5758 51.9525 28.7671C51.6702 27.9584 51.1944 27.2311 50.5664 26.6486C49.9385 26.066 49.1776 25.646 48.35 25.425Z" fill="#FFFF79"/>
<path d="M38.6375 78.0374L24.8875 67.3124C24.3505 66.957 23.893 66.4942 23.5437 65.9532C23.1945 65.4122 22.9611 64.8048 22.8582 64.1691C22.7553 63.5334 22.7853 62.8834 22.9461 62.2598C23.1069 61.6363 23.3952 61.0529 23.7927 60.5462C24.1902 60.0396 24.6883 59.6209 25.2556 59.3163C25.823 59.0117 26.4473 58.828 27.0892 58.7767C27.7311 58.7254 28.3766 58.8075 28.9852 59.0181C29.5937 59.2286 30.1521 59.5629 30.625 59.9999L40.875 67.9874L62.675 42.6374C63.4884 41.7091 64.6359 41.14 65.8672 41.0545C67.0985 40.9689 68.3136 41.3737 69.2476 42.1806C70.1816 42.9875 70.7586 44.1311 70.8527 45.3617C70.9468 46.5924 70.5504 47.8103 69.75 48.7499L45.05 77.3999C44.267 78.3085 43.1647 78.8813 41.9712 79C40.7776 79.1187 39.5841 78.774 38.6375 78.0374Z" fill="#FFBD38"/>
<path d="M38.6374 71.0249L24.8874 60.2999C24.404 59.9232 23.9995 59.4549 23.697 58.9219C23.3946 58.3888 23.2001 57.8014 23.1246 57.1932C22.9723 55.9648 23.3141 54.7262 24.0749 53.7499C24.4517 53.2665 24.9199 52.862 25.453 52.5595C25.986 52.2571 26.5734 52.0626 27.1817 51.9871C28.41 51.8347 29.6486 52.1766 30.6249 52.9374L40.8749 60.9249L62.6749 35.6249C63.5001 34.746 64.633 34.2199 65.8369 34.1564C67.0409 34.0929 68.2228 34.497 69.1359 35.2842C70.0489 36.0715 70.6226 37.181 70.737 38.3812C70.8514 39.5813 70.4978 40.7793 69.7499 41.7249L45.0499 70.3874C44.2686 71.2987 43.166 71.8735 41.9715 71.9923C40.7771 72.111 39.5828 71.7645 38.6374 71.0249Z" fill="#12C58B"/>
<path d="M32.5874 36.6499H25.0999C24.6856 36.6499 24.3499 36.9857 24.3499 37.3999V41.6249C24.3499 42.0391 24.6856 42.3749 25.0999 42.3749H32.5874C33.0016 42.3749 33.3374 42.0391 33.3374 41.6249V37.3999C33.3374 36.9857 33.0016 36.6499 32.5874 36.6499Z" fill="#FFDB56"/>
<path d="M93.5624 14.125C93.5408 13.9217 93.4642 13.7283 93.3408 13.5653C93.2175 13.4023 93.0521 13.276 92.8624 13.2C92.5749 13.075 96.3624 14.175 47.3499 0.0624664C46.8124 -0.0875336 49.6874 -0.800034 1.31242 13.125L0.999924 13.275C0.868227 13.3483 0.753428 13.4485 0.662981 13.5691C0.572535 13.6897 0.508462 13.828 0.474924 13.975C0.387424 14.2875 0.474924 11.9875 0.474924 58.6C0.474924 95.3875 26.7249 109.337 42.4374 117.675C46.6749 120 46.5499 120 46.9999 120C47.4499 120 47.3249 120 51.4999 117.775C66.2124 110.062 93.5874 95.75 93.5874 58.6C93.5874 10.5625 93.5999 14.4375 93.5624 14.125ZM80.5499 21.625L48.2499 12.3375V2.92497L89.5874 14.825L80.5499 21.625ZM46.9999 104.25C33.8374 97.2125 14.4999 86.475 14.4999 58.6V23.95L46.9999 14.575L79.4999 23.95V58.6C79.4999 86.725 59.4999 97.7125 46.9999 104.25ZM13.4624 21.6375L4.41242 14.825L45.7499 2.92497V12.3375L13.4624 21.6375ZM2.91242 58.6V16.825L11.9999 23.6375V58.6375C11.9999 87.9 31.9999 99.075 45.7499 106.387V116.637L43.5499 115.462C28.3499 107.387 2.91242 93.8875 2.91242 58.6ZM50.3374 115.55C49.6124 115.925 48.9124 116.287 48.2499 116.65V106.437C61.1874 99.625 81.9999 88.1875 81.9999 58.6V23.6L91.0374 16.7875V58.6C91.0874 94.2375 64.5874 108.1 50.3374 115.55Z" fill="#302D3D"/>
<path d="M70.1 34.1751C68.9093 33.1517 67.3612 32.6428 65.7956 32.7599C64.2301 32.8771 62.775 33.6109 61.75 34.8001L40.75 59.2001L31.4375 51.9376C30.2025 50.9695 28.6337 50.5317 27.0759 50.7204C25.5182 50.9091 24.0993 51.7089 23.1312 52.9438C22.1632 54.1787 21.7253 55.7476 21.9141 57.3054C22.1028 58.8631 22.9025 60.282 24.1375 61.2501L37.8875 71.9751C39.086 72.909 40.5976 73.3467 42.1097 73.1979C43.6219 73.049 45.019 72.3248 46.0125 71.1751L70.75 42.5001C71.7626 41.3077 72.2625 39.7632 72.1407 38.2036C72.019 36.644 71.2854 35.1959 70.1 34.1751ZM68.85 40.9001L44.1125 69.5626C43.5303 70.2117 42.7262 70.6191 41.8586 70.7048C40.9909 70.7904 40.1227 70.5479 39.425 70.0251L25.675 59.3126C25.2942 59.0465 24.9716 58.7058 24.7266 58.3111C24.4817 57.9164 24.3196 57.476 24.2502 57.0167C24.1809 56.5574 24.2056 56.0888 24.3231 55.6393C24.4405 55.1899 24.6481 54.7691 24.9333 54.4024C25.2185 54.0357 25.5753 53.7309 25.982 53.5065C26.3887 53.282 26.8367 53.1427 27.299 53.0968C27.7612 53.051 28.228 53.0997 28.6708 53.24C29.1137 53.3802 29.5233 53.609 29.875 53.9126L40.125 61.9001C40.3785 62.0959 40.6975 62.1869 41.0161 62.1543C41.3348 62.1218 41.6288 61.9681 41.8375 61.7251L63.6375 36.4376C63.923 36.0731 64.2795 35.7704 64.6853 35.5476C65.0912 35.3248 65.538 35.1866 65.9988 35.1413C66.4595 35.0961 66.9247 35.1447 67.3661 35.2843C67.8076 35.4239 68.2161 35.6515 68.5671 35.9534C68.9181 36.2554 69.2042 36.6253 69.4082 37.041C69.6122 37.4566 69.7298 37.9093 69.7539 38.3716C69.778 38.834 69.7081 39.2964 69.5484 39.731C69.3888 40.1656 69.1427 40.5633 68.825 40.9001H68.85Z" fill="#302D3D"/>
</svg>
