<svg width="20" height="21" viewBox="0 0 20 21" fill="none" xmlns="http://www.w3.org/2000/svg">
<path d="M3.92508 15.6585C4.00841 15.6919 4.08341 15.7085 4.16675 15.7085H12.7251C13.0667 15.7085 13.3501 15.4252 13.3501 15.0835C13.3501 14.7419 13.0667 14.4585 12.7251 14.4585H5.67508L16.2751 3.85853C16.5167 3.61686 16.5167 3.21686 16.2751 2.9752C16.0334 2.73353 15.6334 2.73353 15.3917 2.9752L4.79175 13.5752V6.5252C4.79175 6.18353 4.50841 5.9002 4.16675 5.9002C3.82508 5.9002 3.54175 6.18353 3.54175 6.5252V15.0835C3.54175 15.1669 3.55841 15.2419 3.59175 15.3252C3.65008 15.4752 3.77508 15.6002 3.92508 15.6585Z" fill="#F0FF3D"/>
<path d="M17.0834 18.2085H2.91675C2.57508 18.2085 2.29175 18.4918 2.29175 18.8335C2.29175 19.1752 2.57508 19.4585 2.91675 19.4585H17.0834C17.4251 19.4585 17.7084 19.1752 17.7084 18.8335C17.7084 18.4918 17.4251 18.2085 17.0834 18.2085Z" fill="#F0FF3D"/>
</svg>
