<svg width="20" height="21" viewBox="0 0 20 21" fill="none" xmlns="http://www.w3.org/2000/svg">
<path d="M17.0834 18.2085H2.91675C2.57508 18.2085 2.29175 18.4918 2.29175 18.8335C2.29175 19.1752 2.57508 19.4585 2.91675 19.4585H17.0834C17.4251 19.4585 17.7084 19.1752 17.7084 18.8335C17.7084 18.4918 17.4251 18.2085 17.0834 18.2085Z" fill="#F0FF3D"/>
<path d="M4.16675 12.5998C4.50841 12.5998 4.79175 12.3165 4.79175 11.9748V4.92484L15.3917 15.5248C15.5167 15.6498 15.6751 15.7082 15.8334 15.7082C15.9917 15.7082 16.1501 15.6498 16.2751 15.5248C16.5167 15.2832 16.5167 14.8832 16.2751 14.6415L5.67508 4.0415H12.7251C13.0667 4.0415 13.3501 3.75817 13.3501 3.4165C13.3501 3.07484 13.0667 2.7915 12.7251 2.7915H4.16675C4.08341 2.7915 4.00841 2.80817 3.92508 2.8415C3.77508 2.89984 3.65008 3.02484 3.59175 3.17484C3.55841 3.25817 3.54175 3.33317 3.54175 3.4165V11.9748C3.54175 12.3165 3.82508 12.5998 4.16675 12.5998Z" fill="#F0FF3D"/>
</svg>
