<svg width="13" height="12" viewBox="0 0 13 12" fill="none" xmlns="http://www.w3.org/2000/svg">
<path d="M11.15 3.78984H8.36001C8.16501 3.78984 8.01001 3.63484 8.01001 3.43984C8.01001 3.24484 8.16501 3.08984 8.36001 3.08984H11.15C11.345 3.08984 11.5 3.24484 11.5 3.43984C11.5 3.63484 11.345 3.78984 11.15 3.78984Z" fill="#003D31"/>
<path d="M3.71 3.78984H1.85C1.655 3.78984 1.5 3.63484 1.5 3.43984C1.5 3.24484 1.655 3.08984 1.85 3.08984H3.71C3.905 3.08984 4.06 3.24484 4.06 3.43984C4.06 3.63484 3.9 3.78984 3.71 3.78984Z" fill="#003D31"/>
<path d="M5.56997 5.41484C6.66073 5.41484 7.54497 4.53061 7.54497 3.43984C7.54497 2.34908 6.66073 1.46484 5.56997 1.46484C4.47921 1.46484 3.59497 2.34908 3.59497 3.43984C3.59497 4.53061 4.47921 5.41484 5.56997 5.41484Z" fill="#003D31"/>
<path d="M11.1499 8.90508H9.28994C9.09494 8.90508 8.93994 8.75008 8.93994 8.55508C8.93994 8.36008 9.09494 8.20508 9.28994 8.20508H11.1499C11.3449 8.20508 11.4999 8.36008 11.4999 8.55508C11.4999 8.75008 11.3449 8.90508 11.1499 8.90508Z" fill="#003D31"/>
<path d="M4.64 8.90508H1.85C1.655 8.90508 1.5 8.75008 1.5 8.55508C1.5 8.36008 1.655 8.20508 1.85 8.20508H4.64C4.835 8.20508 4.99 8.36008 4.99 8.55508C4.99 8.75008 4.83 8.90508 4.64 8.90508Z" fill="#003D31"/>
<path d="M7.43008 10.535C8.52084 10.535 9.40508 9.65072 9.40508 8.55996C9.40508 7.4692 8.52084 6.58496 7.43008 6.58496C6.33932 6.58496 5.45508 7.4692 5.45508 8.55996C5.45508 9.65072 6.33932 10.535 7.43008 10.535Z" fill="#003D31"/>
</svg>
