<svg width="20" height="21" viewBox="0 0 20 21" fill="none" xmlns="http://www.w3.org/2000/svg">
<rect y="0.5" width="20" height="20" rx="2" fill="#E0E8E6"/>
<path d="M14.65 8.28984H11.86C11.665 8.28984 11.51 8.13484 11.51 7.93984C11.51 7.74484 11.665 7.58984 11.86 7.58984H14.65C14.845 7.58984 15 7.74484 15 7.93984C15 8.13484 14.845 8.28984 14.65 8.28984Z" fill="#003D31"/>
<path d="M7.21 8.28984H5.35C5.155 8.28984 5 8.13484 5 7.93984C5 7.74484 5.155 7.58984 5.35 7.58984H7.21C7.405 7.58984 7.56 7.74484 7.56 7.93984C7.56 8.13484 7.4 8.28984 7.21 8.28984Z" fill="#003D31"/>
<path d="M9.06997 9.91533C10.1607 9.91533 11.045 9.03109 11.045 7.94033C11.045 6.84957 10.1607 5.96533 9.06997 5.96533C7.97921 5.96533 7.09497 6.84957 7.09497 7.94033C7.09497 9.03109 7.97921 9.91533 9.06997 9.91533Z" fill="#003D31"/>
<path d="M14.65 13.4051H12.79C12.595 13.4051 12.44 13.2501 12.44 13.0551C12.44 12.8601 12.595 12.7051 12.79 12.7051H14.65C14.845 12.7051 15 12.8601 15 13.0551C15 13.2501 14.845 13.4051 14.65 13.4051Z" fill="#003D31"/>
<path d="M8.14 13.4051H5.35C5.155 13.4051 5 13.2501 5 13.0551C5 12.8601 5.155 12.7051 5.35 12.7051H8.14C8.335 12.7051 8.49 12.8601 8.49 13.0551C8.49 13.2501 8.33 13.4051 8.14 13.4051Z" fill="#003D31"/>
<path d="M10.93 15.035C12.0208 15.035 12.905 14.1507 12.905 13.06C12.905 11.9692 12.0208 11.085 10.93 11.085C9.83925 11.085 8.95502 11.9692 8.95502 13.06C8.95502 14.1507 9.83925 15.035 10.93 15.035Z" fill="#003D31"/>
</svg>
