<svg width="24" height="24" viewBox="0 0 24 24" fill="none" xmlns="http://www.w3.org/2000/svg">
<path d="M22.9942 8.167C22.9942 10.0678 22.2391 11.8908 20.895 13.2348C19.5509 14.5789 17.728 15.334 15.8272 15.334C15.6605 15.334 15.4948 15.324 15.3302 15.304C13.6083 15.1896 11.9864 14.4547 10.7652 13.2355C9.54399 12.0163 8.80637 10.3956 8.68916 8.674C8.67091 8.5056 8.66123 8.33638 8.66016 8.167C8.66016 6.26619 9.41525 4.44324 10.7593 3.09917C12.1034 1.75509 13.9263 1 15.8272 1C17.728 1 19.5509 1.75509 20.895 3.09917C22.2391 4.44324 22.9942 6.26619 22.9942 8.167Z" fill="#FFEF5E"/>
<path d="M15.8272 1C13.9263 1 12.1034 1.7551 10.7593 3.09917C9.41525 4.44324 8.66016 6.2662 8.66016 8.167C8.66016 8.33634 8.66982 8.505 8.68916 8.673C8.80426 10.3758 9.52715 11.9805 10.7262 13.195L20.8562 3.066C19.5174 1.74059 17.709 0.997989 15.8252 1" fill="#FFFAD6"/>
<path d="M15.3321 15.305C15.4385 16.7637 15.0964 18.22 14.3517 19.4787C13.607 20.7375 12.4952 21.7384 11.1655 22.3474C9.83581 22.9564 8.3517 23.1444 6.91216 22.886C5.47263 22.6276 4.14648 21.9354 3.11154 20.902C2.07659 19.8686 1.38231 18.5435 1.12179 17.1043C0.861266 15.6652 1.04695 14.1808 1.65395 12.8502C2.26094 11.5196 3.26024 10.4063 4.51785 9.65971C5.77546 8.9131 7.23126 8.56881 8.69008 8.67302C8.80681 10.3948 9.54408 12.0159 10.7651 13.2355C11.9862 14.4551 13.6081 15.1904 15.3301 15.305" fill="#FFBC44"/>
<path d="M8.68996 8.67296C7.23793 8.57007 5.78899 8.91176 4.53592 9.65259C3.28286 10.3934 2.28508 11.4982 1.67536 12.8201C1.06564 14.1419 0.872872 15.6181 1.12271 17.0521C1.37256 18.4862 2.05316 19.8102 3.07396 20.848L10.728 13.195C9.52859 11.9806 8.80534 10.3758 8.68996 8.67296Z" fill="#FFDDA1"/>
<path d="M22.9942 8.167C22.9942 10.0678 22.2391 11.8908 20.895 13.2348C19.5509 14.5789 17.728 15.334 15.8272 15.334C15.6605 15.334 15.4948 15.324 15.3302 15.304C13.6083 15.1896 11.9864 14.4547 10.7652 13.2355C9.54399 12.0163 8.80637 10.3956 8.68916 8.674C8.67091 8.5056 8.66123 8.33638 8.66016 8.167C8.66016 6.26619 9.41525 4.44324 10.7593 3.09917C12.1034 1.75509 13.9263 1 15.8272 1C17.728 1 19.5509 1.75509 20.895 3.09917C22.2391 4.44324 22.9942 6.26619 22.9942 8.167Z" stroke="#191919" stroke-linecap="round" stroke-linejoin="round"/>
<path d="M15.3321 15.305C15.4385 16.7637 15.0964 18.22 14.3517 19.4787C13.607 20.7375 12.4952 21.7384 11.1655 22.3474C9.83581 22.9564 8.35169 23.1444 6.91216 22.886C5.47263 22.6276 4.14648 21.9354 3.11154 20.902C2.07659 19.8686 1.38231 18.5435 1.12179 17.1043C0.861266 15.6652 1.04695 14.1808 1.65395 12.8502C2.26094 11.5196 3.26024 10.4063 4.51785 9.65971C5.77546 8.9131 7.23126 8.56881 8.69008 8.67302C8.80681 10.3948 9.54407 12.0159 10.7651 13.2355C11.9862 14.4551 13.6081 15.1904 15.3301 15.305M7.71008 13.423V12.467" stroke="#191919" stroke-linecap="round" stroke-linejoin="round"/>
<path d="M9.13608 13.422H7.20008C6.9022 13.4219 6.61361 13.5257 6.38388 13.7153C6.15416 13.9049 5.99763 14.1686 5.94119 14.4611C5.88475 14.7536 5.93193 15.0566 6.07461 15.318C6.21729 15.5795 6.44658 15.7832 6.72308 15.894L8.69508 16.684C8.97166 16.7948 9.201 16.9985 9.34367 17.2601C9.48635 17.5217 9.53345 17.8248 9.47688 18.1174C9.42031 18.4099 9.26361 18.6736 9.0337 18.8631C8.80379 19.0527 8.51504 19.1562 8.21708 19.156H6.27008M7.71008 20.112V19.156M15.8331 5.29997V4.34497M17.2601 5.29997H15.3231C15.0252 5.29995 14.7366 5.40365 14.5069 5.59327C14.2772 5.78289 14.1206 6.04659 14.0642 6.33908C14.0078 6.63156 14.0549 6.93457 14.1976 7.19605C14.3403 7.45753 14.5696 7.66116 14.8461 7.77197L16.8181 8.56197C17.0947 8.67281 17.324 8.87653 17.4667 9.13811C17.6093 9.3997 17.6564 9.70281 17.5999 9.99536C17.5433 10.2879 17.3866 10.5516 17.1567 10.7411C16.9268 10.9307 16.638 11.0342 16.3401 11.034H14.3931M15.8331 11.99V11.034" stroke="#191919" stroke-linecap="round" stroke-linejoin="round"/>
</svg>
