<svg width="36" height="36" viewBox="0 0 36 36" fill="none" xmlns="http://www.w3.org/2000/svg">
<path d="M24.285 3H11.715C6.255 3 3 6.255 3 11.715V24.285C3 28.5 4.935 31.395 8.34 32.49C9.33 32.835 10.47 33 11.715 33H24.285C25.53 33 26.67 32.835 27.66 32.49C31.065 31.395 33 28.5 33 24.285V11.715C33 6.255 29.745 3 24.285 3ZM30.75 24.285C30.75 27.495 29.49 29.52 26.955 30.36C25.5 27.495 22.05 25.455 18 25.455C13.95 25.455 10.515 27.48 9.045 30.36H9.03C6.525 29.55 5.25 27.51 5.25 24.3V11.715C5.25 7.485 7.485 5.25 11.715 5.25H24.285C28.515 5.25 30.75 7.485 30.75 11.715V24.285Z" fill="#003D31"/>
<path d="M17.9999 12C15.0299 12 12.6299 14.4 12.6299 17.37C12.6299 20.34 15.0299 22.755 17.9999 22.755C20.9699 22.755 23.3699 20.34 23.3699 17.37C23.3699 14.4 20.9699 12 17.9999 12Z" fill="#292D32"/>
</svg>
