<svg width="14" height="12" viewBox="0 0 14 12" fill="none" xmlns="http://www.w3.org/2000/svg">
<path d="M13.1668 4.10001C11.6268 1.68001 9.3735 0.286682 7.00016 0.286682C5.8135 0.286682 4.66016 0.633349 3.60683 1.28002C2.5535 1.93335 1.60683 2.88668 0.833496 4.10001C0.166829 5.14668 0.166829 6.84668 0.833496 7.89335C2.3735 10.32 4.62683 11.7067 7.00016 11.7067C8.18683 11.7067 9.34016 11.36 10.3935 10.7133C11.4468 10.06 12.3935 9.10668 13.1668 7.89335C13.8335 6.85335 13.8335 5.14668 13.1668 4.10001ZM7.00016 8.69335C5.50683 8.69335 4.30683 7.48668 4.30683 6.00001C4.30683 4.51335 5.50683 3.30668 7.00016 3.30668C8.4935 3.30668 9.6935 4.51335 9.6935 6.00001C9.6935 7.48668 8.4935 8.69335 7.00016 8.69335Z" fill="#292D32"/>
</svg>
