<svg width="25" height="24" viewBox="0 0 25 24" fill="none" xmlns="http://www.w3.org/2000/svg">
<path d="M22.5 10.9702V13.0302C22.5 13.5802 22.06 14.0302 21.5 14.0502H19.54C18.46 14.0502 17.47 13.2602 17.38 12.1802C17.32 11.5502 17.56 10.9602 17.98 10.5502C18.35 10.1702 18.86 9.9502 19.42 9.9502H21.5C22.06 9.9702 22.5 10.4202 22.5 10.9702Z" fill="#809E98"/>
<path d="M20.97 15.55H19.54C17.64 15.55 16.04 14.12 15.88 12.3C15.79 11.26 16.17 10.22 16.93 9.48C17.57 8.82 18.46 8.45 19.42 8.45H20.97C21.26 8.45 21.5 8.21 21.47 7.92C21.25 5.49 19.64 3.83 17.25 3.55C17.01 3.51 16.76 3.5 16.5 3.5H7.5C7.22 3.5 6.95 3.52 6.69 3.56C4.14 3.88 2.5 5.78 2.5 8.5V15.5C2.5 18.26 4.74 20.5 7.5 20.5H16.5C19.3 20.5 21.23 18.75 21.47 16.08C21.5 15.79 21.26 15.55 20.97 15.55ZM13.5 9.75H7.5C7.09 9.75 6.75 9.41 6.75 9C6.75 8.59 7.09 8.25 7.5 8.25H13.5C13.91 8.25 14.25 8.59 14.25 9C14.25 9.41 13.91 9.75 13.5 9.75Z" fill="#809E98"/>
</svg>
